<?xml version="1.0" encoding="UTF-8" standalone="no"?>
<!DOCTYPE svg PUBLIC "-//W3C//DTD SVG 1.1//EN" "http://www.w3.org/Graphics/SVG/1.1/DTD/svg11.dtd">
<svg version="1.1" xmlns="http://www.w3.org/2000/svg" xmlns:xlink="http://www.w3.org/1999/xlink" preserveAspectRatio="xMidYMid meet" viewBox="9.88799469126207 179.14163573153266 627.9019606829611 275.33787073568374" width="623.9" height="271.34"><defs><path d="M32.15 254.94C22.54 262.7 15.23 275.44 12.39 289.44C9.56 303.41 10.83 317.99 15.35 322.88C17.78 325.51 19.79 325.39 27.43 322.06C42.46 315.53 47.68 313.35 53.06 311.38C64.07 307.35 72.12 305.13 84.86 302.59C93.2 300.9 96.97 299.42 98 297.45C99.48 294.58 98.17 292.52 94.35 291.66C92.37 291.25 89.7 291.25 78.37 291.87C62.67 292.65 62.47 292.65 62.47 292.15C62.47 291.62 69.45 285.91 76.02 281.02C92.74 268.58 111.39 257.77 141.13 243.23C157.07 235.47 158.51 234.81 158.84 235.14C159 235.26 155.14 242.08 150.29 250.3C121.05 299.71 103.01 333.93 92.25 360.51C80.5 389.47 79.02 404.83 86.5 420.56C92.09 432.44 102.44 443.24 113.16 448.41C122.07 452.73 127.82 452.52 135.96 447.59C145.45 441.84 157.81 429.48 172.76 410.83C178.51 403.64 201.93 372.67 211.25 359.89C248.31 309.12 273.61 265.82 281.54 239.53C283.88 231.85 284.45 228.4 284.45 222.69C284.45 216.28 283.63 213.78 280.72 211.23C278.7 209.46 276.94 208.89 274.51 209.3C266.22 210.61 250.61 228.03 241.98 245.49C237.09 255.43 235.04 262.62 235 269.85C235 270.13 235 271.54 235 274.08C230.91 280.51 228.63 284.09 228.18 284.8C181.64 357.92 151.24 398.09 135.3 407.46C132.06 409.39 128.48 410.54 126.8 410.25C123.88 409.72 121.42 405.32 120.39 398.92C119.81 395.1 119.9 388.36 120.55 385.07C123.02 373.49 134.68 348.84 153.13 316.35C166.36 293.1 187.72 257.81 205.3 230.29C211.38 220.76 214.46 213.86 214.46 209.75C214.46 204.12 207.93 192.29 201.35 186.01C196.18 181.08 191.86 179.48 186.07 180.38C171.7 182.64 142.28 194.39 105.4 212.67C72.94 228.69 43.98 245.41 32.15 254.94Z" id="bt9LY7XBQ"></path><path d="M32.15 254.94C22.54 262.7 15.23 275.44 12.39 289.44C9.56 303.41 10.83 317.99 15.35 322.88C17.78 325.51 19.79 325.39 27.43 322.06C42.46 315.53 47.68 313.35 53.06 311.38C64.07 307.35 72.12 305.13 84.86 302.59C93.2 300.9 96.97 299.42 98 297.45C99.48 294.58 98.17 292.52 94.35 291.66C92.37 291.25 89.7 291.25 78.37 291.87C62.67 292.65 62.47 292.65 62.47 292.15C62.47 291.62 69.45 285.91 76.02 281.02C92.74 268.58 111.39 257.77 141.13 243.23C157.07 235.47 158.51 234.81 158.84 235.14C159 235.26 155.14 242.08 150.29 250.3C121.05 299.71 103.01 333.93 92.25 360.51C80.5 389.47 79.02 404.83 86.5 420.56C92.09 432.44 102.44 443.24 113.16 448.41C122.07 452.73 127.82 452.52 135.96 447.59C145.45 441.84 157.81 429.48 172.76 410.83C178.51 403.64 201.93 372.67 211.25 359.89C248.31 309.12 273.61 265.82 281.54 239.53C283.88 231.85 284.45 228.4 284.45 222.69C284.45 216.28 283.63 213.78 280.72 211.23C278.7 209.46 276.94 208.89 274.51 209.3C266.22 210.61 250.61 228.03 241.98 245.49C237.09 255.43 235.04 262.62 235 269.85C235 270.13 235 271.54 235 274.08C230.91 280.51 228.63 284.09 228.18 284.8C181.64 357.92 151.24 398.09 135.3 407.46C132.06 409.39 128.48 410.54 126.8 410.25C123.88 409.72 121.42 405.32 120.39 398.92C119.81 395.1 119.9 388.36 120.55 385.07C123.02 373.49 134.68 348.84 153.13 316.35C166.36 293.1 187.72 257.81 205.3 230.29C211.38 220.76 214.46 213.86 214.46 209.75C214.46 204.12 207.93 192.29 201.35 186.01C196.18 181.08 191.86 179.48 186.07 180.38C171.7 182.64 142.28 194.39 105.4 212.67C72.94 228.69 43.98 245.41 32.15 254.94Z" id="b85JPpQzZ"></path><path d="M528.18 181.66L528.64 181.69L529.09 181.73L529.54 181.78L529.98 181.83L530.42 181.9L530.86 181.98L531.29 182.06L532.15 182.26L532.57 182.38L533 182.5L533.43 182.64L533.85 182.79L534.28 182.94L534.71 183.11L535.14 183.29L535.58 183.47L536.02 183.67L536.47 183.88L537.37 184.32L537.97 184.63L538.57 184.96L539.17 185.31L539.78 185.68L540.39 186.06L541.01 186.47L541.62 186.9L542.24 187.34L542.86 187.8L543.48 188.28L544.11 188.77L544.73 189.27L545.34 189.79L545.96 190.33L546.57 190.87L547.18 191.43L547.79 192.01L548.39 192.59L548.99 193.18L549.58 193.78L550.17 194.39L550.75 195.01L551.32 195.64L551.88 196.28L552.98 197.56L553.51 198.22L554.04 198.87L554.55 199.53L555.05 200.2L555.54 200.87L556.01 201.53L556.47 202.2L556.92 202.87L557.35 203.54L557.77 204.22L558.17 204.88L558.55 205.55L558.92 206.22L559.27 206.88L559.55 207.46L559.81 208.02L560.03 208.58L560.23 209.12L560.4 209.65L560.54 210.17L560.64 210.68L560.72 211.18L560.76 211.67L560.78 212.15L560.76 212.63L560.71 213.09L560.63 213.55L560.52 213.99L560.37 214.43L560.19 214.87L559.98 215.29L559.73 215.71L559.45 216.13L559.13 216.53L558.78 216.94L558.4 217.34L557.98 217.73L557.52 218.12L557.03 218.51L556.5 218.89L555.94 219.27L555.34 219.65L554.7 220.03L554.02 220.4L553.31 220.77L552.56 221.14L551.77 221.51L550.94 221.89L550.07 222.26L549.16 222.63L548.22 223L547.23 223.38L546.2 223.75L545.14 224.13L544.9 224.21L544.42 224.39L544.16 224.48L543.9 224.58L543.63 224.68L543.36 224.79L542.8 225.01L542.51 225.13L542.22 225.24L541.92 225.36L541.62 225.49L541.32 225.61L540.08 226.13L539.77 226.27L539.45 226.4L539.14 226.54L538.82 226.68L538.51 226.82L538.19 226.96L536.64 227.66L535.74 228.08L535.45 228.21L535.16 228.35L534.88 228.49L534.6 228.62L534.06 228.88L533.8 229.01L533.55 229.14L532.97 229.44L532.42 229.72L531.89 229.98L531.4 230.24L530.93 230.48L530.48 230.71L530.06 230.93L529.67 231.13L529.31 231.32L528.97 231.5L528.65 231.67L528.37 231.83L528.1 231.98L527.86 232.11L527.65 232.24L527.45 232.35L527.29 232.45L527.02 232.63L526.92 232.7L526.85 232.77L526.79 232.82L526.76 232.87L526.75 232.91L526.76 232.94L526.8 232.96L526.85 232.97L526.92 232.98L527.02 232.97L527.13 232.96L527.27 232.95L527.42 232.92L527.6 232.89L527.79 232.86L528 232.81L528.23 232.76L528.47 232.71L528.74 232.65L529.02 232.58L529.32 232.51L529.73 232.41L530.14 232.32L530.55 232.24L530.96 232.15L532.22 231.91L533.08 231.77L533.5 231.7L534.79 231.52L536.08 231.37L537.37 231.25L537.79 231.21L538.22 231.18L538.64 231.16L539.06 231.13L539.48 231.11L539.89 231.1L540.3 231.08L540.71 231.07L541.12 231.07L541.52 231.06L541.91 231.06L542.31 231.07L542.69 231.08L543.08 231.09L543.45 231.1L543.82 231.12L544.19 231.15L544.55 231.17L544.9 231.2L545.25 231.24L545.59 231.28L546.65 231.42L547.69 231.58L548.7 231.77L549.7 231.99L550.67 232.23L551.62 232.5L552.54 232.79L553.45 233.12L554.33 233.46L555.19 233.84L556.03 234.24L556.84 234.66L557.64 235.12L558.41 235.6L559.16 236.1L559.89 236.64L560.6 237.19L561.28 237.78L561.95 238.39L562.59 239.04L563.21 239.7L563.81 240.4L564.39 241.12L564.95 241.87L565.49 242.64L566 243.45L566.5 244.28L566.97 245.14L567.42 246.02L567.86 246.94L568.27 247.88L568.66 248.85L569.03 249.84L569.38 250.87L569.71 251.92L570.02 253L570.31 254.11L570.58 255.25L570.83 256.41L571.06 257.61L571.12 258L571.19 258.42L571.25 258.88L571.3 259.37L571.36 259.88L571.4 260.42L571.44 260.98L571.48 261.57L571.52 262.18L571.55 262.81L571.57 263.45L571.59 264.12L571.61 264.8L571.62 265.5L571.63 266.21L571.64 266.93L571.64 268.4L571.62 269.9L571.61 270.66L571.57 272.18L571.51 273.7L571.48 274.45L571.4 275.95L571.36 276.68L571.31 277.41L571.26 278.13L571.2 278.83L571.15 279.52L571.08 280.2L571.02 280.86L570.95 281.5L570.88 282.12L570.81 282.72L570.73 283.3L570.65 283.86L570.33 285.79L569.99 287.73L569.6 289.69L569.19 291.65L568.74 293.62L568.26 295.59L567.74 297.57L567.2 299.56L566.62 301.56L566 303.56L565.36 305.57L564.68 307.58L563.98 309.59L563.24 311.61L562.47 313.63L561.67 315.65L560.84 317.67L559.97 319.69L559.08 321.72L558.16 323.74L557.21 325.77L556.23 327.79L555.22 329.81L554.19 331.83L553.12 333.84L552.03 335.86L550.9 337.87L549.75 339.87L548.58 341.87L547.37 343.86L546.14 345.85L544.88 347.83L543.6 349.81L542.28 351.77L540.95 353.73L539.58 355.68L538.2 357.62L536.78 359.55L535.34 361.47L533.88 363.38L531.16 366.82L528.4 370.2L525.59 373.51L522.73 376.75L519.84 379.92L516.9 383.02L513.92 386.05L510.91 389.02L507.85 391.9L504.77 394.72L501.65 397.46L498.5 400.13L495.31 402.72L492.1 405.24L488.87 407.68L485.61 410.04L482.32 412.32L479.01 414.52L475.68 416.63L472.34 418.67L468.97 420.62L465.59 422.49L462.19 424.27L458.79 425.97L455.37 427.58L451.94 429.1L448.5 430.53L445.06 431.88L441.61 433.13L438.16 434.29L434.71 435.36L431.26 436.33L427.81 437.21L424.36 438L420.92 438.69L417.48 439.28L414.05 439.77L410.63 440.17L407.22 440.46L403.83 440.65L402.23 440.7L400.64 440.73L399.07 440.72L397.51 440.68L395.96 440.62L394.43 440.52L392.92 440.4L391.41 440.25L389.93 440.06L388.46 439.85L387 439.61L385.56 439.34L384.13 439.04L382.72 438.71L381.32 438.35L379.94 437.96L378.58 437.54L377.23 437.1L375.89 436.62L374.57 436.12L373.27 435.58L371.99 435.02L370.72 434.43L369.46 433.81L368.23 433.17L367 432.49L365.8 431.78L364.61 431.05L363.44 430.29L362.29 429.5L361.15 428.68L360.03 427.83L358.93 426.95L357.84 426.05L356.77 425.12L355.72 424.16L354.69 423.17L353.68 422.15L352.68 421.1L351.7 420.03L350.84 419.04L350 418.02L349.17 416.98L348.36 415.92L347.58 414.82L346.8 413.71L346.05 412.57L345.32 411.4L344.6 410.21L343.9 409L343.22 407.76L342.56 406.5L341.92 405.22L341.29 403.92L340.69 402.59L340.1 401.24L339.54 399.87L338.99 398.48L338.46 397.07L337.95 395.64L337.47 394.19L337 392.72L336.55 391.23L336.12 389.71L335.71 388.18L335.32 386.64L334.95 385.07L334.6 383.49L334.28 381.88L333.97 380.26L333.68 378.63L333.42 376.97L333.18 375.3L332.95 373.62L332.75 371.92L332.57 370.2L332.41 368.47L332.27 366.72L332.16 364.95L332.06 363.18L331.99 360.39L332.02 357.59L332.16 354.75L332.39 351.89L332.74 349.01L333.18 346.1L333.72 343.18L334.37 340.24L335.11 337.27L335.96 334.29L336.9 331.3L337.94 328.28L339.08 325.26L340.31 322.22L341.65 319.17L343.07 316.11L344.59 313.04L346.21 309.96L347.92 306.88L349.72 303.79L351.61 300.69L353.59 297.6L355.67 294.49L357.83 291.39L360.09 288.29L362.43 285.19L364.86 282.09L367.38 278.99L369.98 275.9L372.67 272.81L375.45 269.73L378.31 266.66L381.25 263.59L384.28 260.54L387.39 257.5L390.58 254.47L393.86 251.45L397.21 248.45L400.64 245.46L404.16 242.49L406.86 240.26L409.59 238.06L412.34 235.89L415.11 233.74L417.91 231.63L420.73 229.55L423.56 227.5L426.41 225.48L429.27 223.5L432.15 221.55L435.04 219.63L437.94 217.75L440.85 215.91L443.77 214.11L446.69 212.34L449.62 210.61L452.55 208.92L455.49 207.27L458.42 205.67L461.35 204.1L464.28 202.58L467.21 201.1L470.12 199.67L473.04 198.28L475.94 196.94L478.83 195.64L481.71 194.39L484.58 193.19L487.43 192.04L490.27 190.94L493.09 189.89L495.89 188.89L498.66 187.94L501.42 187.05L504.15 186.21L506.86 185.43L509.54 184.7L512.19 184.02L514.82 183.4L517.41 182.85L518.11 182.7L518.79 182.57L519.45 182.45L520.1 182.33L520.73 182.23L521.34 182.13L521.94 182.04L522.52 181.96L523.1 181.89L523.65 181.82L524.2 181.77L524.73 181.72L525.25 181.69L525.76 181.66L526.26 181.64L526.75 181.63L527.24 181.63L527.71 181.64L528.18 181.66ZM522.32 250.43L522.05 250.43L521.78 250.44L521.5 250.45L521.22 250.47L520.93 250.48L520.64 250.5L520.34 250.52L520.04 250.54L519.73 250.57L519.41 250.59L519.09 250.62L517.34 250.81L515.57 251.05L513.78 251.34L511.96 251.68L510.12 252.07L508.27 252.5L506.39 252.99L504.5 253.52L502.59 254.09L500.67 254.71L498.74 255.37L496.79 256.08L494.84 256.83L492.88 257.62L490.91 258.46L488.93 259.33L486.95 260.25L484.97 261.2L482.99 262.19L481 263.22L479.02 264.29L477.04 265.4L475.06 266.54L473.09 267.71L471.12 268.92L469.17 270.16L467.22 271.44L465.28 272.74L463.35 274.08L461.44 275.45L459.54 276.85L457.66 278.28L455.8 279.74L453.95 281.22L452.13 282.73L450.32 284.27L448.54 285.84L446.78 287.43L445.05 289.04L443.34 290.68L442.88 291.13L442.42 291.57L441.98 292.01L441.54 292.44L441.11 292.86L440.7 293.28L440.29 293.69L439.49 294.51L439.11 294.9L438.73 295.3L437.99 296.08L437.63 296.46L437.28 296.85L436.93 297.23L435.91 298.37L435.25 299.13L433.97 300.65L433.33 301.43L433.02 301.82L432.71 302.22L432.39 302.62L432.08 303.03L431.76 303.44L431.45 303.85L431.13 304.27L430.49 305.13L430.16 305.57L429.84 306.02L429.51 306.48L429.17 306.94L428.75 307.53L428.33 308.11L427.92 308.66L427.52 309.2L427.12 309.72L426.74 310.22L426.36 310.7L425.99 311.17L425.63 311.62L425.27 312.05L424.92 312.46L424.58 312.86L424.24 313.24L423.91 313.61L423.59 313.96L423.27 314.29L422.96 314.61L422.65 314.91L422.35 315.2L422.06 315.47L421.76 315.73L421.48 315.97L421.19 316.2L420.91 316.41L420.64 316.61L420.37 316.79L420.1 316.96L419.84 317.12L419.58 317.26L419.32 317.39L419.06 317.51L418.81 317.61L418.56 317.7L418.31 317.78L418.06 317.85L417.82 317.9L417.57 317.94L417.33 317.97L417.09 317.99L416.62 317.99L416.4 317.97L415.96 317.89L415.75 317.83L415.54 317.76L415.34 317.68L415.14 317.59L414.94 317.48L414.56 317.24L414.38 317.1L414.2 316.95L414.03 316.79L413.86 316.62L413.7 316.44L413.54 316.25L413.24 315.83L412.96 315.39L412.83 315.15L412.59 314.65L412.48 314.38L412.38 314.11L412.18 313.55L412.02 312.95L411.95 312.64L411.88 312.32L411.83 312L411.77 311.67L411.73 311.34L411.7 310.99L411.67 310.65L411.65 310.29L411.64 309.94L411.63 309.57L411.63 309.34L411.62 309.29L411.62 309.18L411.61 309.12L411.61 309.07L411.6 309.02L411.6 308.97L411.58 308.87L411.58 308.82L411.57 308.77L411.56 308.73L411.55 308.68L411.5 308.48L411.49 308.45L411.48 308.41L411.45 308.32L411.43 308.3L411.42 308.27L411.41 308.25L411.39 308.23L411.37 308.19L411.35 308.18L411.34 308.16L411.32 308.15L411.31 308.14L411.29 308.14L411.28 308.13L411.26 308.13L411.25 308.14L411.23 308.15L411.2 308.16L411.17 308.19L411.13 308.22L411.08 308.25L411.03 308.29L410.98 308.34L410.92 308.39L410.78 308.51L410.55 308.74L410.46 308.82L410.37 308.91L410.27 309L409.85 309.42L409.73 309.53L409.49 309.77L409.37 309.9L409.11 310.16L408.85 310.44L408.57 310.72L408.43 310.87L408.28 311.02L408.14 311.17L407.99 311.32L407.69 311.64L407.54 311.79L407.39 311.96L407.24 312.12L405.57 313.96L403.95 315.79L402.36 317.62L400.81 319.44L399.3 321.25L397.83 323.06L396.4 324.86L395.01 326.66L393.66 328.45L392.35 330.24L391.07 332.03L389.84 333.8L388.64 335.58L387.48 337.35L386.36 339.12L385.28 340.88L384.23 342.64L383.23 344.39L382.26 346.15L381.33 347.9L380.43 349.64L379.58 351.39L378.76 353.13L377.98 354.87L377.24 356.61L376.53 358.34L375.86 360.08L375.23 361.81L374.64 363.54L374.08 365.27L373.56 367L373.07 368.73L372.63 370.46L372.22 372.19L371.84 373.92L371.5 375.65L371.2 377.38L370.94 379.11L370.71 380.84L370.51 382.57L370.43 383.45L370.36 384.31L370.3 385.17L370.26 386.02L370.23 386.86L370.21 387.68L370.21 388.5L370.22 389.31L370.24 390.1L370.28 390.88L370.32 391.65L370.38 392.41L370.46 393.16L370.54 393.9L370.64 394.62L370.76 395.33L370.88 396.03L371.02 396.72L371.17 397.4L371.33 398.06L371.5 398.72L371.69 399.35L371.89 399.98L372.1 400.59L372.33 401.19L372.57 401.78L372.82 402.36L373.08 402.92L373.35 403.46L373.64 404L373.94 404.52L374.25 405.03L374.57 405.52L374.91 406L375.25 406.46L375.61 406.91L375.98 407.35L376.37 407.77L376.76 408.18L377.17 408.57L377.48 408.85L378.1 409.37L378.43 409.62L378.75 409.86L379.09 410.09L379.42 410.31L379.77 410.53L380.11 410.73L380.47 410.93L380.83 411.12L381.19 411.3L381.57 411.47L381.95 411.63L382.33 411.78L382.72 411.93L383.52 412.19L383.93 412.31L384.35 412.42L385.21 412.62L386.09 412.78L386.55 412.85L387.01 412.91L387.48 412.96L388.44 413.04L388.93 413.06L389.44 413.08L389.95 413.09L390.99 413.09L392.07 413.05L392.62 413.02L393.76 412.94L394.34 412.88L395.92 412.7L397.52 412.49L399.15 412.23L400.81 411.93L402.48 411.59L404.18 411.21L405.89 410.8L407.62 410.35L409.37 409.86L411.13 409.34L412.9 408.78L414.69 408.2L416.48 407.57L418.28 406.92L420.08 406.23L421.89 405.52L423.7 404.77L425.52 403.99L427.33 403.19L429.14 402.36L430.94 401.5L432.74 400.61L434.53 399.7L436.32 398.77L438.09 397.81L439.85 396.82L441.6 395.82L443.34 394.79L445.05 393.74L446.75 392.68L448.43 391.59L450.08 390.48L451.72 389.36L453.32 388.22L454.91 387.06L456.46 385.88L457.98 384.7L459.48 383.49L460.94 382.28L462.36 381.05L465.46 378.3L468.51 375.55L471.5 372.78L474.45 370L477.34 367.21L480.18 364.41L482.97 361.61L485.7 358.8L488.37 355.99L490.99 353.18L493.55 350.37L496.05 347.55L498.49 344.74L500.86 341.94L503.18 339.13L505.43 336.34L507.62 333.55L509.74 330.77L511.79 328.01L513.78 325.25L515.7 322.51L517.54 319.79L519.32 317.08L521.03 314.39L522.66 311.71L524.22 309.06L525.71 306.43L527.11 303.83L528.45 301.25L529.7 298.7L530.88 296.17L531.97 293.68L532.99 291.21L533.92 288.78L534.77 286.38L535.54 284.02L536.22 281.69L536.81 279.4L537.32 277.15L537.74 274.94L537.84 274.38L537.93 273.83L538.01 273.29L538.09 272.76L538.15 272.24L538.22 271.74L538.28 271.24L538.33 270.76L538.37 270.28L538.41 269.82L538.44 269.36L538.46 268.91L538.48 268.47L538.49 268.03L538.49 267.19L538.48 266.78L538.46 266.37L538.44 265.97L538.4 265.57L538.37 265.18L538.32 264.79L538.27 264.41L538.21 264.03L538.14 263.66L538.07 263.28L537.99 262.91L537.9 262.54L537.8 262.18L537.7 261.81L537.59 261.45L537.47 261.08L537.35 260.72L537.22 260.36L537.08 259.99L536.93 259.62L536.77 259.26L536.61 258.89L536.44 258.52L536.26 258.14L536.16 257.93L536.05 257.73L535.93 257.52L535.8 257.3L535.67 257.09L535.53 256.88L535.38 256.67L535.23 256.45L535.07 256.24L534.9 256.03L534.73 255.82L534.56 255.61L534.38 255.4L534.19 255.19L533.81 254.79L533.61 254.59L533.42 254.39L533.21 254.19L533.01 254L532.8 253.82L532.59 253.63L532.38 253.45L532.17 253.28L531.95 253.11L531.74 252.94L531.52 252.78L531.31 252.62L531.09 252.47L530.67 252.19L530.45 252.06L530.03 251.82L529.82 251.71L529.42 251.51L529.02 251.35L528.83 251.28L528.62 251.22L528.22 251.1L528.01 251.04L527.81 250.99L527.6 250.94L527.4 250.89L527.19 250.84L526.56 250.72L526.34 250.68L526.13 250.65L525.25 250.53L524.79 250.49L524.56 250.48L524.33 250.46L524.09 250.45L523.85 250.44L523.35 250.42L522.58 250.42L522.32 250.43Z" id="aQcqCdY1E"></path><path d="M528.18 181.66L528.64 181.69L529.09 181.73L529.54 181.78L529.98 181.83L530.42 181.9L530.86 181.98L531.29 182.06L532.15 182.26L532.57 182.38L533 182.5L533.43 182.64L533.85 182.79L534.28 182.94L534.71 183.11L535.14 183.29L535.58 183.47L536.02 183.67L536.47 183.88L537.37 184.32L537.97 184.63L538.57 184.96L539.17 185.31L539.78 185.68L540.39 186.06L541.01 186.47L541.62 186.9L542.24 187.34L542.86 187.8L543.48 188.28L544.11 188.77L544.73 189.27L545.34 189.79L545.96 190.33L546.57 190.87L547.18 191.43L547.79 192.01L548.39 192.59L548.99 193.18L549.58 193.78L550.17 194.39L550.75 195.01L551.32 195.64L551.88 196.28L552.98 197.56L553.51 198.22L554.04 198.87L554.55 199.53L555.05 200.2L555.54 200.87L556.01 201.53L556.47 202.2L556.92 202.87L557.35 203.54L557.77 204.22L558.17 204.88L558.55 205.55L558.92 206.22L559.27 206.88L559.55 207.46L559.81 208.02L560.03 208.58L560.23 209.12L560.4 209.65L560.54 210.17L560.64 210.68L560.72 211.18L560.76 211.67L560.78 212.15L560.76 212.63L560.71 213.09L560.63 213.55L560.52 213.99L560.37 214.43L560.19 214.87L559.98 215.29L559.73 215.71L559.45 216.13L559.13 216.53L558.78 216.94L558.4 217.34L557.98 217.73L557.52 218.12L557.03 218.51L556.5 218.89L555.94 219.27L555.34 219.65L554.7 220.03L554.02 220.4L553.31 220.77L552.56 221.14L551.77 221.51L550.94 221.89L550.07 222.26L549.16 222.63L548.22 223L547.23 223.38L546.2 223.75L545.14 224.13L544.9 224.21L544.42 224.39L544.16 224.48L543.9 224.58L543.63 224.68L543.36 224.79L542.8 225.01L542.51 225.13L542.22 225.24L541.92 225.36L541.62 225.49L541.32 225.61L540.08 226.13L539.77 226.27L539.45 226.4L539.14 226.54L538.82 226.68L538.51 226.82L538.19 226.96L536.64 227.66L535.74 228.08L535.45 228.21L535.16 228.35L534.88 228.49L534.6 228.62L534.06 228.88L533.8 229.01L533.55 229.14L532.97 229.44L532.42 229.72L531.89 229.98L531.4 230.24L530.93 230.48L530.48 230.71L530.06 230.93L529.67 231.13L529.31 231.32L528.97 231.5L528.65 231.67L528.37 231.83L528.1 231.98L527.86 232.11L527.65 232.24L527.45 232.35L527.29 232.45L527.02 232.63L526.92 232.7L526.85 232.77L526.79 232.82L526.76 232.87L526.75 232.91L526.76 232.94L526.8 232.96L526.85 232.97L526.92 232.98L527.02 232.97L527.13 232.96L527.27 232.95L527.42 232.92L527.6 232.89L527.79 232.86L528 232.81L528.23 232.76L528.47 232.71L528.74 232.65L529.02 232.58L529.32 232.51L529.73 232.41L530.14 232.32L530.55 232.24L530.96 232.15L532.22 231.91L533.08 231.77L533.5 231.7L534.79 231.52L536.08 231.37L537.37 231.25L537.79 231.21L538.22 231.18L538.64 231.16L539.06 231.13L539.48 231.11L539.89 231.1L540.3 231.08L540.71 231.07L541.12 231.07L541.52 231.06L541.91 231.06L542.31 231.07L542.69 231.08L543.08 231.09L543.45 231.1L543.82 231.12L544.19 231.15L544.55 231.17L544.9 231.2L545.25 231.24L545.59 231.28L546.65 231.42L547.69 231.58L548.7 231.77L549.7 231.99L550.67 232.23L551.62 232.5L552.54 232.79L553.45 233.12L554.33 233.46L555.19 233.84L556.03 234.24L556.84 234.66L557.64 235.12L558.41 235.6L559.16 236.1L559.89 236.64L560.6 237.19L561.28 237.78L561.95 238.39L562.59 239.04L563.21 239.7L563.81 240.4L564.39 241.12L564.95 241.87L565.49 242.64L566 243.45L566.5 244.28L566.97 245.14L567.42 246.02L567.86 246.94L568.27 247.88L568.66 248.85L569.03 249.84L569.38 250.87L569.71 251.92L570.02 253L570.31 254.11L570.58 255.25L570.83 256.41L571.06 257.61L571.12 258L571.19 258.42L571.25 258.88L571.3 259.37L571.36 259.88L571.4 260.42L571.44 260.98L571.48 261.57L571.52 262.18L571.55 262.81L571.57 263.45L571.59 264.12L571.61 264.8L571.62 265.5L571.63 266.21L571.64 266.93L571.64 268.4L571.62 269.9L571.61 270.66L571.57 272.18L571.51 273.7L571.48 274.45L571.4 275.95L571.36 276.68L571.31 277.41L571.26 278.13L571.2 278.83L571.15 279.52L571.08 280.2L571.02 280.86L570.95 281.5L570.88 282.12L570.81 282.72L570.73 283.3L570.65 283.86L570.33 285.79L569.99 287.73L569.6 289.69L569.19 291.65L568.74 293.62L568.26 295.59L567.74 297.57L567.2 299.56L566.62 301.56L566 303.56L565.36 305.57L564.68 307.58L563.98 309.59L563.24 311.61L562.47 313.63L561.67 315.65L560.84 317.67L559.97 319.69L559.08 321.72L558.16 323.74L557.21 325.77L556.23 327.79L555.22 329.81L554.19 331.83L553.12 333.84L552.03 335.86L550.9 337.87L549.75 339.87L548.58 341.87L547.37 343.86L546.14 345.85L544.88 347.83L543.6 349.81L542.28 351.77L540.95 353.73L539.58 355.68L538.2 357.62L536.78 359.55L535.34 361.47L533.88 363.38L531.16 366.82L528.4 370.2L525.59 373.51L522.73 376.75L519.84 379.92L516.9 383.02L513.92 386.05L510.91 389.02L507.85 391.9L504.77 394.72L501.65 397.46L498.5 400.13L495.31 402.72L492.1 405.24L488.87 407.68L485.61 410.04L482.32 412.32L479.01 414.52L475.68 416.63L472.34 418.67L468.97 420.62L465.59 422.49L462.19 424.27L458.79 425.97L455.37 427.58L451.94 429.1L448.5 430.53L445.06 431.88L441.61 433.13L438.16 434.29L434.71 435.36L431.26 436.33L427.81 437.21L424.36 438L420.92 438.69L417.48 439.28L414.05 439.77L410.63 440.17L407.22 440.46L403.83 440.65L402.23 440.7L400.64 440.73L399.07 440.72L397.51 440.68L395.96 440.62L394.43 440.52L392.92 440.4L391.41 440.25L389.93 440.06L388.46 439.85L387 439.61L385.56 439.34L384.13 439.04L382.72 438.71L381.32 438.35L379.94 437.96L378.58 437.54L377.23 437.1L375.89 436.62L374.57 436.12L373.27 435.58L371.99 435.02L370.72 434.43L369.46 433.81L368.23 433.17L367 432.49L365.8 431.78L364.61 431.05L363.44 430.29L362.29 429.5L361.15 428.68L360.03 427.83L358.93 426.95L357.84 426.05L356.77 425.12L355.72 424.16L354.69 423.17L353.68 422.15L352.68 421.1L351.7 420.03L350.84 419.04L350 418.02L349.17 416.98L348.36 415.92L347.58 414.82L346.8 413.71L346.05 412.57L345.32 411.4L344.6 410.21L343.9 409L343.22 407.76L342.56 406.5L341.92 405.22L341.29 403.92L340.69 402.59L340.1 401.24L339.54 399.87L338.99 398.48L338.46 397.07L337.95 395.64L337.47 394.19L337 392.72L336.55 391.23L336.12 389.71L335.71 388.18L335.32 386.64L334.95 385.07L334.6 383.49L334.28 381.88L333.97 380.26L333.68 378.63L333.42 376.97L333.18 375.3L332.95 373.62L332.75 371.92L332.57 370.2L332.41 368.47L332.27 366.72L332.16 364.95L332.06 363.18L331.99 360.39L332.02 357.59L332.16 354.75L332.39 351.89L332.74 349.01L333.18 346.1L333.72 343.18L334.37 340.24L335.11 337.27L335.96 334.29L336.9 331.3L337.94 328.28L339.08 325.26L340.31 322.22L341.65 319.17L343.07 316.11L344.59 313.04L346.21 309.96L347.92 306.88L349.72 303.79L351.61 300.69L353.59 297.6L355.67 294.49L357.83 291.39L360.09 288.29L362.43 285.19L364.86 282.09L367.38 278.99L369.98 275.9L372.67 272.81L375.45 269.73L378.31 266.66L381.25 263.59L384.28 260.54L387.39 257.5L390.58 254.47L393.86 251.45L397.21 248.45L400.64 245.46L404.16 242.49L406.86 240.26L409.59 238.06L412.34 235.89L415.11 233.74L417.91 231.63L420.73 229.55L423.56 227.5L426.41 225.48L429.27 223.5L432.15 221.55L435.04 219.63L437.94 217.75L440.85 215.91L443.77 214.11L446.69 212.34L449.62 210.61L452.55 208.92L455.49 207.27L458.42 205.67L461.35 204.1L464.28 202.58L467.21 201.1L470.12 199.67L473.04 198.28L475.94 196.94L478.83 195.64L481.71 194.39L484.58 193.19L487.43 192.04L490.27 190.94L493.09 189.89L495.89 188.89L498.66 187.94L501.42 187.05L504.15 186.21L506.86 185.43L509.54 184.7L512.19 184.02L514.82 183.4L517.41 182.85L518.11 182.7L518.79 182.57L519.45 182.45L520.1 182.33L520.73 182.23L521.34 182.13L521.94 182.04L522.52 181.96L523.1 181.89L523.65 181.82L524.2 181.77L524.73 181.72L525.25 181.69L525.76 181.66L526.26 181.64L526.75 181.63L527.24 181.63L527.71 181.64L528.18 181.66ZM522.32 250.43L522.05 250.43L521.78 250.44L521.5 250.45L521.22 250.47L520.93 250.48L520.64 250.5L520.34 250.52L520.04 250.54L519.73 250.57L519.41 250.59L519.09 250.62L517.34 250.81L515.57 251.05L513.78 251.34L511.96 251.68L510.12 252.07L508.27 252.5L506.39 252.99L504.5 253.52L502.59 254.09L500.67 254.71L498.74 255.37L496.79 256.08L494.84 256.83L492.88 257.62L490.91 258.46L488.93 259.33L486.95 260.25L484.97 261.2L482.99 262.19L481 263.22L479.02 264.29L477.04 265.4L475.06 266.54L473.09 267.71L471.12 268.92L469.17 270.16L467.22 271.44L465.28 272.74L463.35 274.08L461.44 275.45L459.54 276.85L457.66 278.28L455.8 279.74L453.95 281.22L452.13 282.73L450.32 284.27L448.54 285.84L446.78 287.43L445.05 289.04L443.34 290.68L442.88 291.13L442.42 291.57L441.98 292.01L441.54 292.44L441.11 292.86L440.7 293.28L440.29 293.69L439.49 294.51L439.11 294.9L438.73 295.3L437.99 296.08L437.63 296.46L437.28 296.85L436.93 297.23L435.91 298.37L435.25 299.13L433.97 300.65L433.33 301.43L433.02 301.82L432.71 302.22L432.39 302.62L432.08 303.03L431.76 303.44L431.45 303.85L431.13 304.27L430.49 305.13L430.16 305.57L429.84 306.02L429.51 306.48L429.17 306.94L428.75 307.53L428.33 308.11L427.92 308.66L427.52 309.2L427.12 309.72L426.74 310.22L426.36 310.7L425.99 311.17L425.63 311.62L425.27 312.05L424.92 312.46L424.58 312.86L424.24 313.24L423.91 313.61L423.59 313.96L423.27 314.29L422.96 314.61L422.65 314.91L422.35 315.2L422.06 315.47L421.76 315.73L421.48 315.97L421.19 316.2L420.91 316.41L420.64 316.61L420.37 316.79L420.1 316.96L419.84 317.12L419.58 317.26L419.32 317.39L419.06 317.51L418.81 317.61L418.56 317.7L418.31 317.78L418.06 317.85L417.82 317.9L417.57 317.94L417.33 317.97L417.09 317.99L416.62 317.99L416.4 317.97L415.96 317.89L415.75 317.83L415.54 317.76L415.34 317.68L415.14 317.59L414.94 317.48L414.56 317.24L414.38 317.1L414.2 316.95L414.03 316.79L413.86 316.62L413.7 316.44L413.54 316.25L413.24 315.83L412.96 315.39L412.83 315.15L412.59 314.65L412.48 314.38L412.38 314.11L412.18 313.55L412.02 312.95L411.95 312.64L411.88 312.32L411.83 312L411.77 311.67L411.73 311.34L411.7 310.99L411.67 310.65L411.65 310.29L411.64 309.94L411.63 309.57L411.63 309.34L411.62 309.29L411.62 309.18L411.61 309.12L411.61 309.07L411.6 309.02L411.6 308.97L411.58 308.87L411.58 308.82L411.57 308.77L411.56 308.73L411.55 308.68L411.5 308.48L411.49 308.45L411.48 308.41L411.45 308.32L411.43 308.3L411.42 308.27L411.41 308.25L411.39 308.23L411.37 308.19L411.35 308.18L411.34 308.16L411.32 308.15L411.31 308.14L411.29 308.14L411.28 308.13L411.26 308.13L411.25 308.14L411.23 308.15L411.2 308.16L411.17 308.19L411.13 308.22L411.08 308.25L411.03 308.29L410.98 308.34L410.92 308.39L410.78 308.51L410.55 308.74L410.46 308.82L410.37 308.91L410.27 309L409.85 309.42L409.73 309.53L409.49 309.77L409.37 309.9L409.11 310.16L408.85 310.44L408.57 310.72L408.43 310.87L408.28 311.02L408.14 311.17L407.99 311.32L407.69 311.64L407.54 311.79L407.39 311.96L407.24 312.12L405.57 313.96L403.95 315.79L402.36 317.62L400.81 319.44L399.3 321.25L397.83 323.06L396.4 324.86L395.01 326.66L393.66 328.45L392.35 330.24L391.07 332.03L389.84 333.8L388.64 335.58L387.48 337.35L386.36 339.12L385.28 340.88L384.23 342.64L383.23 344.39L382.26 346.15L381.33 347.9L380.43 349.64L379.58 351.39L378.76 353.13L377.98 354.87L377.24 356.61L376.53 358.34L375.86 360.08L375.23 361.81L374.64 363.54L374.08 365.27L373.56 367L373.07 368.73L372.63 370.46L372.22 372.19L371.84 373.92L371.5 375.65L371.2 377.38L370.94 379.11L370.71 380.84L370.51 382.57L370.43 383.45L370.36 384.31L370.3 385.17L370.26 386.02L370.23 386.86L370.21 387.68L370.21 388.5L370.22 389.31L370.24 390.1L370.28 390.88L370.32 391.65L370.38 392.41L370.46 393.16L370.54 393.9L370.64 394.62L370.76 395.33L370.88 396.03L371.02 396.72L371.17 397.4L371.33 398.06L371.5 398.72L371.69 399.35L371.89 399.98L372.1 400.59L372.33 401.19L372.57 401.78L372.82 402.36L373.08 402.92L373.35 403.46L373.64 404L373.94 404.52L374.25 405.03L374.57 405.52L374.91 406L375.25 406.46L375.61 406.91L375.98 407.35L376.37 407.77L376.76 408.18L377.17 408.57L377.48 408.85L378.1 409.37L378.43 409.62L378.75 409.86L379.09 410.09L379.42 410.31L379.77 410.53L380.11 410.73L380.47 410.93L380.83 411.12L381.19 411.3L381.57 411.47L381.95 411.63L382.33 411.78L382.72 411.93L383.52 412.19L383.93 412.31L384.35 412.42L385.21 412.62L386.09 412.78L386.55 412.85L387.01 412.91L387.48 412.96L388.44 413.04L388.93 413.06L389.44 413.08L389.95 413.09L390.99 413.09L392.07 413.05L392.62 413.02L393.76 412.94L394.34 412.88L395.92 412.7L397.52 412.49L399.15 412.23L400.81 411.93L402.48 411.59L404.18 411.21L405.89 410.8L407.62 410.35L409.37 409.86L411.13 409.34L412.9 408.78L414.69 408.2L416.48 407.57L418.28 406.92L420.08 406.23L421.89 405.52L423.7 404.77L425.52 403.99L427.33 403.19L429.14 402.36L430.94 401.5L432.74 400.61L434.53 399.7L436.32 398.77L438.09 397.81L439.85 396.82L441.6 395.82L443.34 394.79L445.05 393.74L446.75 392.68L448.43 391.59L450.08 390.48L451.72 389.36L453.32 388.22L454.91 387.06L456.46 385.88L457.98 384.7L459.48 383.49L460.94 382.28L462.36 381.05L465.46 378.3L468.51 375.55L471.5 372.78L474.45 370L477.34 367.21L480.18 364.41L482.97 361.61L485.7 358.8L488.37 355.99L490.99 353.18L493.55 350.37L496.05 347.55L498.49 344.74L500.86 341.94L503.18 339.13L505.43 336.34L507.62 333.55L509.74 330.77L511.79 328.01L513.78 325.25L515.7 322.51L517.54 319.79L519.32 317.08L521.03 314.39L522.66 311.71L524.22 309.06L525.71 306.43L527.11 303.83L528.45 301.25L529.7 298.7L530.88 296.17L531.97 293.68L532.99 291.21L533.92 288.78L534.77 286.38L535.54 284.02L536.22 281.69L536.81 279.4L537.32 277.15L537.74 274.94L537.84 274.38L537.93 273.83L538.01 273.29L538.09 272.76L538.15 272.24L538.22 271.74L538.28 271.24L538.33 270.76L538.37 270.28L538.41 269.82L538.44 269.36L538.46 268.91L538.48 268.47L538.49 268.03L538.49 267.19L538.48 266.78L538.46 266.37L538.44 265.97L538.4 265.57L538.37 265.18L538.32 264.79L538.27 264.41L538.21 264.03L538.14 263.66L538.07 263.28L537.99 262.91L537.9 262.54L537.8 262.18L537.7 261.81L537.59 261.45L537.47 261.08L537.35 260.72L537.22 260.36L537.08 259.99L536.93 259.62L536.77 259.26L536.61 258.89L536.44 258.52L536.26 258.14L536.16 257.93L536.05 257.73L535.93 257.52L535.8 257.3L535.67 257.09L535.53 256.88L535.38 256.67L535.23 256.45L535.07 256.24L534.9 256.03L534.73 255.82L534.56 255.61L534.38 255.4L534.19 255.19L533.81 254.79L533.61 254.59L533.42 254.39L533.21 254.19L533.01 254L532.8 253.82L532.59 253.63L532.38 253.45L532.17 253.28L531.95 253.11L531.74 252.94L531.52 252.78L531.31 252.62L531.09 252.47L530.67 252.19L530.45 252.06L530.03 251.82L529.82 251.71L529.42 251.51L529.02 251.35L528.83 251.28L528.62 251.22L528.22 251.1L528.01 251.04L527.81 250.99L527.6 250.94L527.4 250.89L527.19 250.84L526.56 250.72L526.34 250.68L526.13 250.65L525.25 250.53L524.79 250.49L524.56 250.48L524.33 250.46L524.09 250.45L523.85 250.44L523.35 250.42L522.58 250.42L522.32 250.43Z" id="cNT9YtXom"></path><path d="M227.15 424.51C227.11 430.26 229.29 434.08 234.05 436.58C238.37 438.88 246.87 440.82 252.74 440.82C265.07 440.82 276.2 425.74 282.65 400.15C283.63 396.29 283.55 394.48 282.2 391.89C280.47 388.48 276.49 386.63 267.53 385.11C261.25 384.05 260.63 384.05 257.3 384.58C248.35 386.06 238.98 394.36 232.78 406.27C228.83 413.91 227.19 419.25 227.15 424.51Z" id="dW33fx1c9"></path><path d="M227.15 424.51C227.11 430.26 229.29 434.08 234.05 436.58C238.37 438.88 246.87 440.82 252.74 440.82C265.07 440.82 276.2 425.74 282.65 400.15C283.63 396.29 283.55 394.48 282.2 391.89C280.47 388.48 276.49 386.63 267.53 385.11C261.25 384.05 260.63 384.05 257.3 384.58C248.35 386.06 238.98 394.36 232.78 406.27C228.83 413.91 227.19 419.25 227.15 424.51Z" id="b4byBtIwkj"></path><path d="M579.52 430.22C582.11 435.93 587.98 438.93 599.56 440.45C604.9 441.14 607.78 440.77 611.52 439.01C620.19 434.9 627.78 422.62 633.33 403.72C635.1 397.6 635.22 394.93 633.91 392.22C632.06 388.44 628.48 386.72 619.12 385.15C612.3 384 611.64 383.96 608.07 384.74C602.69 385.94 597.84 388.93 592.83 394.19C582.72 404.83 576.15 422.7 579.52 430.22Z" id="a1mrT0zMx6"></path><path d="M579.52 430.22C582.11 435.93 587.98 438.93 599.56 440.45C604.9 441.14 607.78 440.77 611.52 439.01C620.19 434.9 627.78 422.62 633.33 403.72C635.1 397.6 635.22 394.93 633.91 392.22C632.06 388.44 628.48 386.72 619.12 385.15C612.3 384 611.64 383.96 608.07 384.74C602.69 385.94 597.84 388.93 592.83 394.19C582.72 404.83 576.15 422.7 579.52 430.22Z" id="c1Q3DgBsnk"></path></defs><g><g><use xlink:href="#bt9LY7XBQ" opacity="1" fill="#ffffff" fill-opacity="1"></use><g><use xlink:href="#bt9LY7XBQ" opacity="1" fill-opacity="0" stroke="#000000" stroke-width="1" stroke-opacity="0"></use></g></g><g><use xlink:href="#b85JPpQzZ" opacity="1" fill="#ffffff" fill-opacity="1"></use><g><use xlink:href="#b85JPpQzZ" opacity="1" fill-opacity="0" stroke="#000000" stroke-width="1" stroke-opacity="0"></use></g></g><g><use xlink:href="#aQcqCdY1E" opacity="1" fill="#ffffff" fill-opacity="1"></use><g><use xlink:href="#aQcqCdY1E" opacity="1" fill-opacity="0" stroke="#000000" stroke-width="1" stroke-opacity="0"></use></g></g><g><use xlink:href="#cNT9YtXom" opacity="1" fill="#ffffff" fill-opacity="1"></use><g><use xlink:href="#cNT9YtXom" opacity="1" fill-opacity="0" stroke="#000000" stroke-width="1" stroke-opacity="0"></use></g></g><g><use xlink:href="#dW33fx1c9" opacity="1" fill="#ffffff" fill-opacity="1"></use><g><use xlink:href="#dW33fx1c9" opacity="1" fill-opacity="0" stroke="#000000" stroke-width="1" stroke-opacity="0"></use></g></g><g><use xlink:href="#b4byBtIwkj" opacity="1" fill="#ffffff" fill-opacity="1"></use><g><use xlink:href="#b4byBtIwkj" opacity="1" fill-opacity="0" stroke="#000000" stroke-width="1" stroke-opacity="0"></use></g></g><g><use xlink:href="#a1mrT0zMx6" opacity="1" fill="#ffffff" fill-opacity="1"></use><g><use xlink:href="#a1mrT0zMx6" opacity="1" fill-opacity="0" stroke="#000000" stroke-width="1" stroke-opacity="0"></use></g></g><g><use xlink:href="#c1Q3DgBsnk" opacity="1" fill="#ffffff" fill-opacity="1"></use><g><use xlink:href="#c1Q3DgBsnk" opacity="1" fill-opacity="0" stroke="#000000" stroke-width="1" stroke-opacity="0"></use></g></g></g></svg>