<?xml version="1.0" encoding="UTF-8" standalone="no"?>
<!DOCTYPE svg PUBLIC "-//W3C//DTD SVG 1.1//EN" "http://www.w3.org/Graphics/SVG/1.1/DTD/svg11.dtd">
<svg version="1.1" xmlns="http://www.w3.org/2000/svg" xmlns:xlink="http://www.w3.org/1999/xlink" preserveAspectRatio="xMidYMid meet" viewBox="9.88799469126207 179.14163573153266 627.9019606829611 388.3583642684673" width="623.9" height="384.36"><defs><path d="M32.15 254.94C22.54 262.7 15.23 275.44 12.39 289.44C9.56 303.41 10.83 317.99 15.35 322.88C17.78 325.51 19.79 325.39 27.43 322.06C42.46 315.53 47.68 313.35 53.06 311.38C64.07 307.35 72.12 305.13 84.86 302.59C93.2 300.9 96.97 299.42 98 297.45C99.48 294.58 98.17 292.52 94.35 291.66C92.37 291.25 89.7 291.25 78.37 291.87C62.67 292.65 62.47 292.65 62.47 292.15C62.47 291.62 69.45 285.91 76.02 281.02C92.74 268.58 111.39 257.77 141.13 243.23C157.07 235.47 158.51 234.81 158.84 235.14C159 235.26 155.14 242.08 150.29 250.3C121.05 299.71 103.01 333.93 92.25 360.51C80.5 389.47 79.02 404.83 86.5 420.56C92.09 432.44 102.44 443.24 113.16 448.41C122.07 452.73 127.82 452.52 135.96 447.59C145.45 441.84 157.81 429.48 172.76 410.83C178.51 403.64 201.93 372.67 211.25 359.89C248.31 309.12 273.61 265.82 281.54 239.53C283.88 231.85 284.45 228.4 284.45 222.69C284.45 216.28 283.63 213.78 280.72 211.23C278.7 209.46 276.94 208.89 274.51 209.3C266.22 210.61 250.61 228.03 241.98 245.49C237.09 255.43 235.04 262.62 235 269.85C235 270.13 235 271.54 235 274.08C230.91 280.51 228.63 284.09 228.18 284.8C181.64 357.92 151.24 398.09 135.3 407.46C132.06 409.39 128.48 410.54 126.8 410.25C123.88 409.72 121.42 405.32 120.39 398.92C119.81 395.1 119.9 388.36 120.55 385.07C123.02 373.49 134.68 348.84 153.13 316.35C166.36 293.1 187.72 257.81 205.3 230.29C211.38 220.76 214.46 213.86 214.46 209.75C214.46 204.12 207.93 192.29 201.35 186.01C196.18 181.08 191.86 179.48 186.07 180.38C171.7 182.64 142.28 194.39 105.4 212.67C72.94 228.69 43.98 245.41 32.15 254.94Z" id="bt9LY7XBQ"></path><path d="M32.15 254.94C22.54 262.7 15.23 275.44 12.39 289.44C9.56 303.41 10.83 317.99 15.35 322.88C17.78 325.51 19.79 325.39 27.43 322.06C42.46 315.53 47.68 313.35 53.06 311.38C64.07 307.35 72.12 305.13 84.86 302.59C93.2 300.9 96.97 299.42 98 297.45C99.48 294.58 98.17 292.52 94.35 291.66C92.37 291.25 89.7 291.25 78.37 291.87C62.67 292.65 62.47 292.65 62.47 292.15C62.47 291.62 69.45 285.91 76.02 281.02C92.74 268.58 111.39 257.77 141.13 243.23C157.07 235.47 158.51 234.81 158.84 235.14C159 235.26 155.14 242.08 150.29 250.3C121.05 299.71 103.01 333.93 92.25 360.51C80.5 389.47 79.02 404.83 86.5 420.56C92.09 432.44 102.44 443.24 113.16 448.41C122.07 452.73 127.82 452.52 135.96 447.59C145.45 441.84 157.81 429.48 172.76 410.83C178.51 403.64 201.93 372.67 211.25 359.89C248.31 309.12 273.61 265.82 281.54 239.53C283.88 231.85 284.45 228.4 284.45 222.69C284.45 216.28 283.63 213.78 280.72 211.23C278.7 209.46 276.94 208.89 274.51 209.3C266.22 210.61 250.61 228.03 241.98 245.49C237.09 255.43 235.04 262.62 235 269.85C235 270.13 235 271.54 235 274.08C230.91 280.51 228.63 284.09 228.18 284.8C181.64 357.92 151.24 398.09 135.3 407.46C132.06 409.39 128.48 410.54 126.8 410.25C123.88 409.72 121.42 405.32 120.39 398.92C119.81 395.1 119.9 388.36 120.55 385.07C123.02 373.49 134.68 348.84 153.13 316.35C166.36 293.1 187.72 257.81 205.3 230.29C211.38 220.76 214.46 213.86 214.46 209.75C214.46 204.12 207.93 192.29 201.35 186.01C196.18 181.08 191.86 179.48 186.07 180.38C171.7 182.64 142.28 194.39 105.4 212.67C72.94 228.69 43.98 245.41 32.15 254.94Z" id="b85JPpQzZ"></path><path d="M528.18 181.66L528.64 181.69L529.09 181.73L529.54 181.78L529.98 181.83L530.42 181.9L530.86 181.98L531.29 182.06L532.15 182.26L532.57 182.38L533 182.5L533.43 182.64L533.85 182.79L534.28 182.94L534.71 183.11L535.14 183.29L535.58 183.47L536.02 183.67L536.47 183.88L537.37 184.32L537.97 184.63L538.57 184.96L539.17 185.31L539.78 185.68L540.39 186.06L541.01 186.47L541.62 186.9L542.24 187.34L542.86 187.8L543.48 188.28L544.11 188.77L544.73 189.27L545.34 189.79L545.96 190.33L546.57 190.87L547.18 191.43L547.79 192.01L548.39 192.59L548.99 193.18L549.58 193.78L550.17 194.39L550.75 195.01L551.32 195.64L551.88 196.28L552.98 197.56L553.51 198.22L554.04 198.87L554.55 199.53L555.05 200.2L555.54 200.87L556.01 201.53L556.47 202.2L556.92 202.87L557.35 203.54L557.77 204.22L558.17 204.88L558.55 205.55L558.92 206.22L559.27 206.88L559.55 207.46L559.81 208.02L560.03 208.58L560.23 209.12L560.4 209.65L560.54 210.17L560.64 210.68L560.72 211.18L560.76 211.67L560.78 212.15L560.76 212.63L560.71 213.09L560.63 213.55L560.52 213.99L560.37 214.43L560.19 214.87L559.98 215.29L559.73 215.71L559.45 216.13L559.13 216.53L558.78 216.94L558.4 217.34L557.98 217.73L557.52 218.12L557.03 218.51L556.5 218.89L555.94 219.27L555.34 219.65L554.7 220.03L554.02 220.4L553.31 220.77L552.56 221.14L551.77 221.51L550.94 221.89L550.07 222.26L549.16 222.63L548.22 223L547.23 223.38L546.2 223.75L545.14 224.13L544.9 224.21L544.42 224.39L544.16 224.48L543.9 224.58L543.63 224.68L543.36 224.79L542.8 225.01L542.51 225.13L542.22 225.24L541.92 225.36L541.62 225.49L541.32 225.61L540.08 226.13L539.77 226.27L539.45 226.4L539.14 226.54L538.82 226.68L538.51 226.82L538.19 226.96L536.64 227.66L535.74 228.08L535.45 228.21L535.16 228.35L534.88 228.49L534.6 228.62L534.06 228.88L533.8 229.01L533.55 229.14L532.97 229.44L532.42 229.72L531.89 229.98L531.4 230.24L530.93 230.48L530.48 230.71L530.06 230.93L529.67 231.13L529.31 231.32L528.97 231.5L528.65 231.67L528.37 231.83L528.1 231.98L527.86 232.11L527.65 232.24L527.45 232.35L527.29 232.45L527.02 232.63L526.92 232.7L526.85 232.77L526.79 232.82L526.76 232.87L526.75 232.91L526.76 232.94L526.8 232.96L526.85 232.97L526.92 232.98L527.02 232.97L527.13 232.96L527.27 232.95L527.42 232.92L527.6 232.89L527.79 232.86L528 232.81L528.23 232.76L528.47 232.71L528.74 232.65L529.02 232.58L529.32 232.51L529.73 232.41L530.14 232.32L530.55 232.24L530.96 232.15L532.22 231.91L533.08 231.77L533.5 231.7L534.79 231.52L536.08 231.37L537.37 231.25L537.79 231.21L538.22 231.18L538.64 231.16L539.06 231.13L539.48 231.11L539.89 231.1L540.3 231.08L540.71 231.07L541.12 231.07L541.52 231.06L541.91 231.06L542.31 231.07L542.69 231.08L543.08 231.09L543.45 231.1L543.82 231.12L544.19 231.15L544.55 231.17L544.9 231.2L545.25 231.24L545.59 231.28L546.65 231.42L547.69 231.58L548.7 231.77L549.7 231.99L550.67 232.23L551.62 232.5L552.54 232.79L553.45 233.12L554.33 233.46L555.19 233.84L556.03 234.24L556.84 234.66L557.64 235.12L558.41 235.6L559.16 236.1L559.89 236.64L560.6 237.19L561.28 237.78L561.95 238.39L562.59 239.04L563.21 239.7L563.81 240.4L564.39 241.12L564.95 241.87L565.49 242.64L566 243.45L566.5 244.28L566.97 245.14L567.42 246.02L567.86 246.94L568.27 247.88L568.66 248.85L569.03 249.84L569.38 250.87L569.71 251.92L570.02 253L570.31 254.11L570.58 255.25L570.83 256.41L571.06 257.61L571.12 258L571.19 258.42L571.25 258.88L571.3 259.37L571.36 259.88L571.4 260.42L571.44 260.98L571.48 261.57L571.52 262.18L571.55 262.81L571.57 263.45L571.59 264.12L571.61 264.8L571.62 265.5L571.63 266.21L571.64 266.93L571.64 268.4L571.62 269.9L571.61 270.66L571.57 272.18L571.51 273.7L571.48 274.45L571.4 275.95L571.36 276.68L571.31 277.41L571.26 278.13L571.2 278.83L571.15 279.52L571.08 280.2L571.02 280.86L570.95 281.5L570.88 282.12L570.81 282.72L570.73 283.3L570.65 283.86L570.33 285.79L569.99 287.73L569.6 289.69L569.19 291.65L568.74 293.62L568.26 295.59L567.74 297.57L567.2 299.56L566.62 301.56L566 303.56L565.36 305.57L564.68 307.58L563.98 309.59L563.24 311.61L562.47 313.63L561.67 315.65L560.84 317.67L559.97 319.69L559.08 321.72L558.16 323.74L557.21 325.77L556.23 327.79L555.22 329.81L554.19 331.83L553.12 333.84L552.03 335.86L550.9 337.87L549.75 339.87L548.58 341.87L547.37 343.86L546.14 345.85L544.88 347.83L543.6 349.81L542.28 351.77L540.95 353.73L539.58 355.68L538.2 357.62L536.78 359.55L535.34 361.47L533.88 363.38L531.16 366.82L528.4 370.2L525.59 373.51L522.73 376.75L519.84 379.92L516.9 383.02L513.92 386.05L510.91 389.02L507.85 391.9L504.77 394.72L501.65 397.46L498.5 400.13L495.31 402.72L492.1 405.24L488.87 407.68L485.61 410.04L482.32 412.32L479.01 414.52L475.68 416.63L472.34 418.67L468.97 420.62L465.59 422.49L462.19 424.27L458.79 425.97L455.37 427.58L451.94 429.1L448.5 430.53L445.06 431.88L441.61 433.13L438.16 434.29L434.71 435.36L431.26 436.33L427.81 437.21L424.36 438L420.92 438.69L417.48 439.28L414.05 439.77L410.63 440.17L407.22 440.46L403.83 440.65L402.23 440.7L400.64 440.73L399.07 440.72L397.51 440.68L395.96 440.62L394.43 440.52L392.92 440.4L391.41 440.25L389.93 440.06L388.46 439.85L387 439.61L385.56 439.34L384.13 439.04L382.72 438.71L381.32 438.35L379.94 437.96L378.58 437.54L377.23 437.1L375.89 436.62L374.57 436.12L373.27 435.58L371.99 435.02L370.72 434.43L369.46 433.81L368.23 433.17L367 432.49L365.8 431.78L364.61 431.05L363.44 430.29L362.29 429.5L361.15 428.68L360.03 427.83L358.93 426.95L357.84 426.05L356.77 425.12L355.72 424.16L354.69 423.17L353.68 422.15L352.68 421.1L351.7 420.03L350.84 419.04L350 418.02L349.17 416.98L348.36 415.92L347.58 414.82L346.8 413.71L346.05 412.57L345.32 411.4L344.6 410.21L343.9 409L343.22 407.76L342.56 406.5L341.92 405.22L341.29 403.92L340.69 402.59L340.1 401.24L339.54 399.87L338.99 398.48L338.46 397.07L337.95 395.64L337.47 394.19L337 392.72L336.55 391.23L336.12 389.71L335.71 388.18L335.32 386.64L334.95 385.07L334.6 383.49L334.28 381.88L333.97 380.26L333.68 378.63L333.42 376.97L333.18 375.3L332.95 373.62L332.75 371.92L332.57 370.2L332.41 368.47L332.27 366.72L332.16 364.95L332.06 363.18L331.99 360.39L332.02 357.59L332.16 354.75L332.39 351.89L332.74 349.01L333.18 346.1L333.72 343.18L334.37 340.24L335.11 337.27L335.96 334.29L336.9 331.3L337.94 328.28L339.08 325.26L340.31 322.22L341.65 319.17L343.07 316.11L344.59 313.04L346.21 309.96L347.92 306.88L349.72 303.79L351.61 300.69L353.59 297.6L355.67 294.49L357.83 291.39L360.09 288.29L362.43 285.19L364.86 282.09L367.38 278.99L369.98 275.9L372.67 272.81L375.45 269.73L378.31 266.66L381.25 263.59L384.28 260.54L387.39 257.5L390.58 254.47L393.86 251.45L397.21 248.45L400.64 245.46L404.16 242.49L406.86 240.26L409.59 238.06L412.34 235.89L415.11 233.74L417.91 231.63L420.73 229.55L423.56 227.5L426.41 225.48L429.27 223.5L432.15 221.55L435.04 219.63L437.94 217.75L440.85 215.91L443.77 214.11L446.69 212.34L449.62 210.61L452.55 208.92L455.49 207.27L458.42 205.67L461.35 204.1L464.28 202.58L467.21 201.1L470.12 199.67L473.04 198.28L475.94 196.94L478.83 195.64L481.71 194.39L484.58 193.19L487.43 192.04L490.27 190.94L493.09 189.89L495.89 188.89L498.66 187.94L501.42 187.05L504.15 186.21L506.86 185.43L509.54 184.7L512.19 184.02L514.82 183.4L517.41 182.85L518.11 182.7L518.79 182.57L519.45 182.45L520.1 182.33L520.73 182.23L521.34 182.13L521.94 182.04L522.52 181.96L523.1 181.89L523.65 181.82L524.2 181.77L524.73 181.72L525.25 181.69L525.76 181.66L526.26 181.64L526.75 181.63L527.24 181.63L527.71 181.64L528.18 181.66ZM522.32 250.43L522.05 250.43L521.78 250.44L521.5 250.45L521.22 250.47L520.93 250.48L520.64 250.5L520.34 250.52L520.04 250.54L519.73 250.57L519.41 250.59L519.09 250.62L517.34 250.81L515.57 251.05L513.78 251.34L511.96 251.68L510.12 252.07L508.27 252.5L506.39 252.99L504.5 253.52L502.59 254.09L500.67 254.71L498.74 255.37L496.79 256.08L494.84 256.83L492.88 257.62L490.91 258.46L488.93 259.33L486.95 260.25L484.97 261.2L482.99 262.19L481 263.22L479.02 264.29L477.04 265.4L475.06 266.54L473.09 267.71L471.12 268.92L469.17 270.16L467.22 271.44L465.28 272.74L463.35 274.08L461.44 275.45L459.54 276.85L457.66 278.28L455.8 279.74L453.95 281.22L452.13 282.73L450.32 284.27L448.54 285.84L446.78 287.43L445.05 289.04L443.34 290.68L442.88 291.13L442.42 291.57L441.98 292.01L441.54 292.44L441.11 292.86L440.7 293.28L440.29 293.69L439.49 294.51L439.11 294.9L438.73 295.3L437.99 296.08L437.63 296.46L437.28 296.85L436.93 297.23L435.91 298.37L435.25 299.13L433.97 300.65L433.33 301.43L433.02 301.82L432.71 302.22L432.39 302.62L432.08 303.03L431.76 303.44L431.45 303.85L431.13 304.27L430.49 305.13L430.16 305.57L429.84 306.02L429.51 306.48L429.17 306.94L428.75 307.53L428.33 308.11L427.92 308.66L427.52 309.2L427.12 309.72L426.74 310.22L426.36 310.7L425.99 311.17L425.63 311.62L425.27 312.05L424.92 312.46L424.58 312.86L424.24 313.24L423.91 313.61L423.59 313.96L423.27 314.29L422.96 314.61L422.65 314.91L422.35 315.2L422.06 315.47L421.76 315.73L421.48 315.97L421.19 316.2L420.91 316.41L420.64 316.61L420.37 316.79L420.1 316.96L419.84 317.12L419.58 317.26L419.32 317.39L419.06 317.51L418.81 317.61L418.56 317.7L418.31 317.78L418.06 317.85L417.82 317.9L417.57 317.94L417.33 317.97L417.09 317.99L416.62 317.99L416.4 317.97L415.96 317.89L415.75 317.83L415.54 317.76L415.34 317.68L415.14 317.59L414.94 317.48L414.56 317.24L414.38 317.1L414.2 316.95L414.03 316.79L413.86 316.62L413.7 316.44L413.54 316.25L413.24 315.83L412.96 315.39L412.83 315.15L412.59 314.65L412.48 314.38L412.38 314.11L412.18 313.55L412.02 312.95L411.95 312.64L411.88 312.32L411.83 312L411.77 311.67L411.73 311.34L411.7 310.99L411.67 310.65L411.65 310.29L411.64 309.94L411.63 309.57L411.63 309.34L411.62 309.29L411.62 309.18L411.61 309.12L411.61 309.07L411.6 309.02L411.6 308.97L411.58 308.87L411.58 308.82L411.57 308.77L411.56 308.73L411.55 308.68L411.5 308.48L411.49 308.45L411.48 308.41L411.45 308.32L411.43 308.3L411.42 308.27L411.41 308.25L411.39 308.23L411.37 308.19L411.35 308.18L411.34 308.16L411.32 308.15L411.31 308.14L411.29 308.14L411.28 308.13L411.26 308.13L411.25 308.14L411.23 308.15L411.2 308.16L411.17 308.19L411.13 308.22L411.08 308.25L411.03 308.29L410.98 308.34L410.92 308.39L410.78 308.51L410.55 308.74L410.46 308.82L410.37 308.91L410.27 309L409.85 309.42L409.73 309.53L409.49 309.77L409.37 309.9L409.11 310.16L408.85 310.44L408.57 310.72L408.43 310.87L408.28 311.02L408.14 311.17L407.99 311.32L407.69 311.64L407.54 311.79L407.39 311.96L407.24 312.12L405.57 313.96L403.95 315.79L402.36 317.62L400.81 319.44L399.3 321.25L397.83 323.06L396.4 324.86L395.01 326.66L393.66 328.45L392.35 330.24L391.07 332.03L389.84 333.8L388.64 335.58L387.48 337.35L386.36 339.12L385.28 340.88L384.23 342.64L383.23 344.39L382.26 346.15L381.33 347.9L380.43 349.64L379.58 351.39L378.76 353.13L377.98 354.87L377.24 356.61L376.53 358.34L375.86 360.08L375.23 361.81L374.64 363.54L374.08 365.27L373.56 367L373.07 368.73L372.63 370.46L372.22 372.19L371.84 373.92L371.5 375.65L371.2 377.38L370.94 379.11L370.71 380.84L370.51 382.57L370.43 383.45L370.36 384.31L370.3 385.17L370.26 386.02L370.23 386.86L370.21 387.68L370.21 388.5L370.22 389.31L370.24 390.1L370.28 390.88L370.32 391.65L370.38 392.41L370.46 393.16L370.54 393.9L370.64 394.62L370.76 395.33L370.88 396.03L371.02 396.72L371.17 397.4L371.33 398.06L371.5 398.72L371.69 399.35L371.89 399.98L372.1 400.59L372.33 401.19L372.57 401.78L372.82 402.36L373.08 402.92L373.35 403.46L373.64 404L373.94 404.52L374.25 405.03L374.57 405.52L374.91 406L375.25 406.46L375.61 406.91L375.98 407.35L376.37 407.77L376.76 408.18L377.17 408.57L377.48 408.85L378.1 409.37L378.43 409.62L378.75 409.86L379.09 410.09L379.42 410.31L379.77 410.53L380.11 410.73L380.47 410.93L380.83 411.12L381.19 411.3L381.57 411.47L381.95 411.63L382.33 411.78L382.72 411.93L383.52 412.19L383.93 412.31L384.35 412.42L385.21 412.62L386.09 412.78L386.55 412.85L387.01 412.91L387.48 412.96L388.44 413.04L388.93 413.06L389.44 413.08L389.95 413.09L390.99 413.09L392.07 413.05L392.62 413.02L393.76 412.94L394.34 412.88L395.92 412.7L397.52 412.49L399.15 412.23L400.81 411.93L402.48 411.59L404.18 411.21L405.89 410.8L407.62 410.35L409.37 409.86L411.13 409.34L412.9 408.78L414.69 408.2L416.48 407.57L418.28 406.92L420.08 406.23L421.89 405.52L423.7 404.77L425.52 403.99L427.33 403.19L429.14 402.36L430.94 401.5L432.74 400.61L434.53 399.7L436.32 398.77L438.09 397.81L439.85 396.82L441.6 395.82L443.34 394.79L445.05 393.74L446.75 392.68L448.43 391.59L450.08 390.48L451.72 389.36L453.32 388.22L454.91 387.06L456.46 385.88L457.98 384.7L459.48 383.49L460.94 382.28L462.36 381.05L465.46 378.3L468.51 375.55L471.5 372.78L474.45 370L477.34 367.21L480.18 364.41L482.97 361.61L485.7 358.8L488.37 355.99L490.99 353.18L493.55 350.37L496.05 347.55L498.49 344.74L500.86 341.94L503.18 339.13L505.43 336.34L507.62 333.55L509.74 330.77L511.79 328.01L513.78 325.25L515.7 322.51L517.54 319.79L519.32 317.08L521.03 314.39L522.66 311.71L524.22 309.06L525.71 306.43L527.11 303.83L528.45 301.25L529.7 298.7L530.88 296.17L531.97 293.68L532.99 291.21L533.92 288.78L534.77 286.38L535.54 284.02L536.22 281.69L536.81 279.4L537.32 277.15L537.74 274.94L537.84 274.38L537.93 273.83L538.01 273.29L538.09 272.76L538.15 272.24L538.22 271.74L538.28 271.24L538.33 270.76L538.37 270.28L538.41 269.82L538.44 269.36L538.46 268.91L538.48 268.47L538.49 268.03L538.49 267.19L538.48 266.78L538.46 266.37L538.44 265.97L538.4 265.57L538.37 265.18L538.32 264.79L538.27 264.41L538.21 264.03L538.14 263.66L538.07 263.28L537.99 262.91L537.9 262.54L537.8 262.18L537.7 261.81L537.59 261.45L537.47 261.08L537.35 260.72L537.22 260.36L537.08 259.99L536.93 259.62L536.77 259.26L536.61 258.89L536.44 258.52L536.26 258.14L536.16 257.93L536.05 257.73L535.93 257.52L535.8 257.3L535.67 257.09L535.53 256.88L535.38 256.67L535.23 256.45L535.07 256.24L534.9 256.03L534.73 255.82L534.56 255.61L534.38 255.4L534.19 255.19L533.81 254.79L533.61 254.59L533.42 254.39L533.21 254.19L533.01 254L532.8 253.82L532.59 253.63L532.38 253.45L532.17 253.28L531.95 253.11L531.74 252.94L531.52 252.78L531.31 252.62L531.09 252.47L530.67 252.19L530.45 252.06L530.03 251.82L529.82 251.71L529.42 251.51L529.02 251.35L528.83 251.28L528.62 251.22L528.22 251.1L528.01 251.04L527.81 250.99L527.6 250.94L527.4 250.89L527.19 250.84L526.56 250.72L526.34 250.68L526.13 250.65L525.25 250.53L524.79 250.49L524.56 250.48L524.33 250.46L524.09 250.45L523.85 250.44L523.35 250.42L522.58 250.42L522.32 250.43Z" id="aQcqCdY1E"></path><path d="M528.18 181.66L528.64 181.69L529.09 181.73L529.54 181.78L529.98 181.83L530.42 181.9L530.86 181.98L531.29 182.06L532.15 182.26L532.57 182.38L533 182.5L533.43 182.64L533.85 182.79L534.28 182.94L534.71 183.11L535.14 183.29L535.58 183.47L536.02 183.67L536.47 183.88L537.37 184.32L537.97 184.63L538.57 184.96L539.17 185.31L539.78 185.68L540.39 186.06L541.01 186.47L541.62 186.9L542.24 187.34L542.86 187.8L543.48 188.28L544.11 188.77L544.73 189.27L545.34 189.79L545.96 190.33L546.57 190.87L547.18 191.43L547.79 192.01L548.39 192.59L548.99 193.18L549.58 193.78L550.17 194.39L550.75 195.01L551.32 195.64L551.88 196.28L552.98 197.56L553.51 198.22L554.04 198.87L554.55 199.53L555.05 200.2L555.54 200.87L556.01 201.53L556.47 202.2L556.92 202.87L557.35 203.54L557.77 204.22L558.17 204.88L558.55 205.55L558.92 206.22L559.27 206.88L559.55 207.46L559.81 208.02L560.03 208.58L560.23 209.12L560.4 209.65L560.54 210.17L560.64 210.68L560.72 211.18L560.76 211.67L560.78 212.15L560.76 212.63L560.71 213.09L560.63 213.55L560.52 213.99L560.37 214.43L560.19 214.87L559.98 215.29L559.73 215.71L559.45 216.13L559.13 216.53L558.78 216.94L558.4 217.34L557.98 217.73L557.52 218.12L557.03 218.51L556.5 218.89L555.94 219.27L555.34 219.65L554.7 220.03L554.02 220.4L553.31 220.77L552.56 221.14L551.77 221.51L550.94 221.89L550.07 222.26L549.16 222.63L548.22 223L547.23 223.38L546.2 223.75L545.14 224.13L544.9 224.21L544.42 224.39L544.16 224.48L543.9 224.58L543.63 224.68L543.36 224.79L542.8 225.01L542.51 225.13L542.22 225.24L541.92 225.36L541.62 225.49L541.32 225.61L540.08 226.13L539.77 226.27L539.45 226.4L539.14 226.54L538.82 226.68L538.51 226.82L538.19 226.96L536.64 227.66L535.74 228.08L535.45 228.21L535.16 228.35L534.88 228.49L534.6 228.62L534.06 228.88L533.8 229.01L533.55 229.14L532.97 229.44L532.42 229.72L531.89 229.98L531.4 230.24L530.93 230.48L530.48 230.71L530.06 230.93L529.67 231.13L529.31 231.32L528.97 231.5L528.65 231.67L528.37 231.83L528.1 231.98L527.86 232.11L527.65 232.24L527.45 232.35L527.29 232.45L527.02 232.63L526.92 232.7L526.85 232.77L526.79 232.82L526.76 232.87L526.75 232.91L526.76 232.94L526.8 232.96L526.85 232.97L526.92 232.98L527.02 232.97L527.13 232.96L527.27 232.95L527.42 232.92L527.6 232.89L527.79 232.86L528 232.81L528.23 232.76L528.47 232.71L528.74 232.65L529.02 232.58L529.32 232.51L529.73 232.41L530.14 232.32L530.55 232.24L530.96 232.15L532.22 231.91L533.08 231.77L533.5 231.7L534.79 231.52L536.08 231.37L537.37 231.25L537.79 231.21L538.22 231.18L538.64 231.16L539.06 231.13L539.48 231.11L539.89 231.1L540.3 231.08L540.71 231.07L541.12 231.07L541.52 231.06L541.91 231.06L542.31 231.07L542.69 231.08L543.08 231.09L543.45 231.1L543.82 231.12L544.19 231.15L544.55 231.17L544.9 231.2L545.25 231.24L545.59 231.28L546.65 231.42L547.69 231.58L548.7 231.77L549.7 231.99L550.67 232.23L551.62 232.5L552.54 232.79L553.45 233.12L554.33 233.46L555.19 233.84L556.03 234.24L556.84 234.66L557.64 235.12L558.41 235.6L559.16 236.1L559.89 236.64L560.6 237.19L561.28 237.78L561.95 238.39L562.59 239.04L563.21 239.7L563.81 240.4L564.39 241.12L564.95 241.87L565.49 242.64L566 243.45L566.5 244.28L566.97 245.14L567.42 246.02L567.86 246.94L568.27 247.88L568.66 248.85L569.03 249.84L569.38 250.87L569.71 251.92L570.02 253L570.31 254.11L570.58 255.25L570.83 256.41L571.06 257.61L571.12 258L571.19 258.42L571.25 258.88L571.3 259.37L571.36 259.88L571.4 260.42L571.44 260.98L571.48 261.57L571.52 262.18L571.55 262.81L571.57 263.45L571.59 264.12L571.61 264.8L571.62 265.5L571.63 266.21L571.64 266.93L571.64 268.4L571.62 269.9L571.61 270.66L571.57 272.18L571.51 273.7L571.48 274.45L571.4 275.95L571.36 276.68L571.31 277.41L571.26 278.13L571.2 278.83L571.15 279.52L571.08 280.2L571.02 280.86L570.95 281.5L570.88 282.12L570.81 282.72L570.73 283.3L570.65 283.86L570.33 285.79L569.99 287.73L569.6 289.69L569.19 291.65L568.74 293.62L568.26 295.59L567.74 297.57L567.2 299.56L566.62 301.56L566 303.56L565.36 305.57L564.68 307.58L563.98 309.59L563.24 311.61L562.47 313.63L561.67 315.65L560.84 317.67L559.97 319.69L559.08 321.72L558.16 323.74L557.21 325.77L556.23 327.79L555.22 329.81L554.19 331.83L553.12 333.84L552.03 335.86L550.9 337.87L549.75 339.87L548.58 341.87L547.37 343.86L546.14 345.85L544.88 347.83L543.6 349.81L542.28 351.77L540.95 353.73L539.58 355.68L538.2 357.62L536.78 359.55L535.34 361.47L533.88 363.38L531.16 366.82L528.4 370.2L525.59 373.51L522.73 376.75L519.84 379.92L516.9 383.02L513.92 386.05L510.91 389.02L507.85 391.9L504.77 394.72L501.65 397.46L498.5 400.13L495.31 402.72L492.1 405.24L488.87 407.68L485.61 410.04L482.32 412.32L479.01 414.52L475.68 416.63L472.34 418.67L468.97 420.62L465.59 422.49L462.19 424.27L458.79 425.97L455.37 427.58L451.94 429.1L448.5 430.53L445.06 431.88L441.61 433.13L438.16 434.29L434.71 435.36L431.26 436.33L427.81 437.21L424.36 438L420.92 438.69L417.48 439.28L414.05 439.77L410.63 440.17L407.22 440.46L403.83 440.65L402.23 440.7L400.64 440.73L399.07 440.72L397.51 440.68L395.96 440.62L394.43 440.52L392.92 440.4L391.41 440.25L389.93 440.06L388.46 439.85L387 439.61L385.56 439.34L384.13 439.04L382.72 438.71L381.32 438.35L379.94 437.96L378.58 437.54L377.23 437.1L375.89 436.62L374.57 436.12L373.27 435.58L371.99 435.02L370.72 434.43L369.46 433.81L368.23 433.17L367 432.49L365.8 431.78L364.61 431.05L363.44 430.29L362.29 429.5L361.15 428.68L360.03 427.83L358.93 426.95L357.84 426.05L356.77 425.12L355.72 424.16L354.69 423.17L353.68 422.15L352.68 421.1L351.7 420.03L350.84 419.04L350 418.02L349.17 416.98L348.36 415.92L347.58 414.82L346.8 413.71L346.05 412.57L345.32 411.4L344.6 410.21L343.9 409L343.22 407.76L342.56 406.5L341.92 405.22L341.29 403.92L340.69 402.59L340.1 401.24L339.54 399.87L338.99 398.48L338.46 397.07L337.95 395.64L337.47 394.19L337 392.72L336.55 391.23L336.12 389.71L335.71 388.18L335.32 386.64L334.95 385.07L334.6 383.49L334.28 381.88L333.97 380.26L333.68 378.63L333.42 376.97L333.18 375.3L332.95 373.62L332.75 371.92L332.57 370.2L332.41 368.47L332.27 366.72L332.16 364.95L332.06 363.18L331.99 360.39L332.02 357.59L332.16 354.75L332.39 351.89L332.74 349.01L333.18 346.1L333.72 343.18L334.37 340.24L335.11 337.27L335.96 334.29L336.9 331.3L337.94 328.28L339.08 325.26L340.31 322.22L341.65 319.17L343.07 316.11L344.59 313.04L346.21 309.96L347.92 306.88L349.72 303.79L351.61 300.69L353.59 297.6L355.67 294.49L357.83 291.39L360.09 288.29L362.43 285.19L364.86 282.09L367.38 278.99L369.98 275.9L372.67 272.81L375.45 269.73L378.31 266.66L381.25 263.59L384.28 260.54L387.39 257.5L390.58 254.47L393.86 251.45L397.21 248.45L400.64 245.46L404.16 242.49L406.86 240.26L409.59 238.06L412.34 235.89L415.11 233.74L417.91 231.63L420.73 229.55L423.56 227.5L426.41 225.48L429.27 223.5L432.15 221.55L435.04 219.63L437.94 217.75L440.85 215.91L443.77 214.11L446.69 212.34L449.62 210.61L452.55 208.92L455.49 207.27L458.42 205.67L461.35 204.1L464.28 202.58L467.21 201.1L470.12 199.67L473.04 198.28L475.94 196.94L478.83 195.64L481.71 194.39L484.58 193.19L487.43 192.04L490.27 190.94L493.09 189.89L495.89 188.89L498.66 187.94L501.42 187.05L504.15 186.21L506.86 185.43L509.54 184.7L512.19 184.02L514.82 183.4L517.41 182.85L518.11 182.7L518.79 182.57L519.45 182.45L520.1 182.33L520.73 182.23L521.34 182.13L521.94 182.04L522.52 181.96L523.1 181.89L523.65 181.82L524.2 181.77L524.73 181.72L525.25 181.69L525.76 181.66L526.26 181.64L526.75 181.63L527.24 181.63L527.71 181.64L528.18 181.66ZM522.32 250.43L522.05 250.43L521.78 250.44L521.5 250.45L521.22 250.47L520.93 250.48L520.64 250.5L520.34 250.52L520.04 250.54L519.73 250.57L519.41 250.59L519.09 250.62L517.34 250.81L515.57 251.05L513.78 251.34L511.96 251.68L510.12 252.07L508.27 252.5L506.39 252.99L504.5 253.52L502.59 254.09L500.67 254.71L498.74 255.37L496.79 256.08L494.84 256.83L492.88 257.62L490.91 258.46L488.93 259.33L486.95 260.25L484.97 261.2L482.99 262.19L481 263.22L479.02 264.29L477.04 265.4L475.06 266.54L473.09 267.71L471.12 268.92L469.17 270.16L467.22 271.44L465.28 272.74L463.35 274.08L461.44 275.45L459.54 276.85L457.66 278.28L455.8 279.74L453.95 281.22L452.13 282.73L450.32 284.27L448.54 285.84L446.78 287.43L445.05 289.04L443.34 290.68L442.88 291.13L442.42 291.57L441.98 292.01L441.54 292.44L441.11 292.86L440.7 293.28L440.29 293.69L439.49 294.51L439.11 294.9L438.73 295.3L437.99 296.08L437.63 296.46L437.28 296.85L436.93 297.23L435.91 298.37L435.25 299.13L433.97 300.65L433.33 301.43L433.02 301.82L432.71 302.22L432.39 302.62L432.08 303.03L431.76 303.44L431.45 303.85L431.13 304.27L430.49 305.13L430.16 305.57L429.84 306.02L429.51 306.48L429.17 306.94L428.75 307.53L428.33 308.11L427.92 308.66L427.52 309.2L427.12 309.72L426.74 310.22L426.36 310.7L425.99 311.17L425.63 311.62L425.27 312.05L424.92 312.46L424.58 312.86L424.24 313.24L423.91 313.61L423.59 313.96L423.27 314.29L422.96 314.61L422.65 314.91L422.35 315.2L422.06 315.47L421.76 315.73L421.48 315.97L421.19 316.2L420.91 316.41L420.64 316.61L420.37 316.79L420.1 316.96L419.84 317.12L419.58 317.26L419.32 317.39L419.06 317.51L418.81 317.61L418.56 317.7L418.31 317.78L418.06 317.85L417.82 317.9L417.57 317.94L417.33 317.97L417.09 317.99L416.62 317.99L416.4 317.97L415.96 317.89L415.75 317.83L415.54 317.76L415.34 317.68L415.14 317.59L414.94 317.48L414.56 317.24L414.38 317.1L414.2 316.95L414.03 316.79L413.86 316.62L413.7 316.44L413.54 316.25L413.24 315.83L412.96 315.39L412.83 315.15L412.59 314.65L412.48 314.38L412.38 314.11L412.18 313.55L412.02 312.95L411.95 312.64L411.88 312.32L411.83 312L411.77 311.67L411.73 311.34L411.7 310.99L411.67 310.65L411.65 310.29L411.64 309.94L411.63 309.57L411.63 309.34L411.62 309.29L411.62 309.18L411.61 309.12L411.61 309.07L411.6 309.02L411.6 308.97L411.58 308.87L411.58 308.82L411.57 308.77L411.56 308.73L411.55 308.68L411.5 308.48L411.49 308.45L411.48 308.41L411.45 308.32L411.43 308.3L411.42 308.27L411.41 308.25L411.39 308.23L411.37 308.19L411.35 308.18L411.34 308.16L411.32 308.15L411.31 308.14L411.29 308.14L411.28 308.13L411.26 308.13L411.25 308.14L411.23 308.15L411.2 308.16L411.17 308.19L411.13 308.22L411.08 308.25L411.03 308.29L410.98 308.34L410.92 308.39L410.78 308.51L410.55 308.74L410.46 308.82L410.37 308.91L410.27 309L409.85 309.42L409.73 309.53L409.49 309.77L409.37 309.9L409.11 310.16L408.85 310.44L408.57 310.72L408.43 310.87L408.28 311.02L408.14 311.17L407.99 311.32L407.69 311.64L407.54 311.79L407.39 311.96L407.24 312.12L405.57 313.96L403.95 315.79L402.36 317.62L400.81 319.44L399.3 321.25L397.83 323.06L396.4 324.86L395.01 326.66L393.66 328.45L392.35 330.24L391.07 332.03L389.84 333.8L388.64 335.58L387.48 337.35L386.36 339.12L385.28 340.88L384.23 342.64L383.23 344.39L382.26 346.15L381.33 347.9L380.43 349.64L379.58 351.39L378.76 353.13L377.98 354.87L377.24 356.61L376.53 358.34L375.86 360.08L375.23 361.81L374.64 363.54L374.08 365.27L373.56 367L373.07 368.73L372.63 370.46L372.22 372.19L371.84 373.92L371.5 375.65L371.2 377.38L370.94 379.11L370.71 380.84L370.51 382.57L370.43 383.45L370.36 384.31L370.3 385.17L370.26 386.02L370.23 386.86L370.21 387.68L370.21 388.5L370.22 389.31L370.24 390.1L370.28 390.88L370.32 391.65L370.38 392.41L370.46 393.16L370.54 393.9L370.64 394.62L370.76 395.33L370.88 396.03L371.02 396.72L371.17 397.4L371.33 398.06L371.5 398.72L371.69 399.35L371.89 399.98L372.1 400.59L372.33 401.19L372.57 401.78L372.82 402.36L373.08 402.92L373.35 403.46L373.64 404L373.94 404.52L374.25 405.03L374.57 405.52L374.91 406L375.25 406.46L375.61 406.91L375.98 407.35L376.37 407.77L376.76 408.18L377.17 408.57L377.48 408.85L378.1 409.37L378.43 409.62L378.75 409.86L379.09 410.09L379.42 410.31L379.77 410.53L380.11 410.73L380.47 410.93L380.83 411.12L381.19 411.3L381.57 411.47L381.95 411.63L382.33 411.78L382.72 411.93L383.52 412.19L383.93 412.31L384.35 412.42L385.21 412.62L386.09 412.78L386.55 412.85L387.01 412.91L387.48 412.96L388.44 413.04L388.93 413.06L389.44 413.08L389.95 413.09L390.99 413.09L392.07 413.05L392.62 413.02L393.76 412.94L394.34 412.88L395.92 412.7L397.52 412.49L399.15 412.23L400.81 411.93L402.48 411.59L404.18 411.21L405.89 410.8L407.62 410.35L409.37 409.86L411.13 409.34L412.9 408.78L414.69 408.2L416.48 407.57L418.28 406.92L420.08 406.23L421.89 405.52L423.7 404.77L425.52 403.99L427.33 403.19L429.14 402.36L430.94 401.5L432.74 400.61L434.53 399.7L436.32 398.77L438.09 397.81L439.85 396.82L441.6 395.82L443.34 394.79L445.05 393.74L446.75 392.68L448.43 391.59L450.08 390.48L451.72 389.36L453.32 388.22L454.91 387.06L456.46 385.88L457.98 384.7L459.48 383.49L460.94 382.28L462.36 381.05L465.46 378.3L468.51 375.55L471.5 372.78L474.45 370L477.34 367.21L480.18 364.41L482.97 361.61L485.7 358.8L488.37 355.99L490.99 353.18L493.55 350.37L496.05 347.55L498.49 344.74L500.86 341.94L503.18 339.13L505.43 336.34L507.62 333.55L509.74 330.77L511.79 328.01L513.78 325.25L515.7 322.51L517.54 319.79L519.32 317.08L521.03 314.39L522.66 311.71L524.22 309.06L525.71 306.43L527.11 303.83L528.45 301.25L529.7 298.7L530.88 296.17L531.97 293.68L532.99 291.21L533.92 288.78L534.77 286.38L535.54 284.02L536.22 281.69L536.81 279.4L537.32 277.15L537.74 274.94L537.84 274.38L537.93 273.83L538.01 273.29L538.09 272.76L538.15 272.24L538.22 271.74L538.28 271.24L538.33 270.76L538.37 270.28L538.41 269.82L538.44 269.36L538.46 268.91L538.48 268.47L538.49 268.03L538.49 267.19L538.48 266.78L538.46 266.37L538.44 265.97L538.4 265.57L538.37 265.18L538.32 264.79L538.27 264.41L538.21 264.03L538.14 263.66L538.07 263.28L537.99 262.91L537.9 262.54L537.8 262.18L537.7 261.81L537.59 261.45L537.47 261.08L537.35 260.72L537.22 260.36L537.08 259.99L536.93 259.62L536.77 259.26L536.61 258.89L536.44 258.52L536.26 258.14L536.16 257.93L536.05 257.73L535.93 257.52L535.8 257.3L535.67 257.09L535.53 256.88L535.38 256.67L535.23 256.45L535.07 256.24L534.9 256.03L534.73 255.82L534.56 255.61L534.38 255.4L534.19 255.19L533.81 254.79L533.61 254.59L533.42 254.39L533.21 254.19L533.01 254L532.8 253.82L532.59 253.63L532.38 253.45L532.17 253.28L531.95 253.11L531.74 252.94L531.52 252.78L531.31 252.62L531.09 252.47L530.67 252.19L530.45 252.06L530.03 251.82L529.82 251.71L529.42 251.51L529.02 251.35L528.83 251.28L528.62 251.22L528.22 251.1L528.01 251.04L527.81 250.99L527.6 250.94L527.4 250.89L527.19 250.84L526.56 250.72L526.34 250.68L526.13 250.65L525.25 250.53L524.79 250.49L524.56 250.48L524.33 250.46L524.09 250.45L523.85 250.44L523.35 250.42L522.58 250.42L522.32 250.43Z" id="cNT9YtXom"></path><path d="M227.15 424.51C227.11 430.26 229.29 434.08 234.05 436.58C238.37 438.88 246.87 440.82 252.74 440.82C265.07 440.82 276.2 425.74 282.65 400.15C283.63 396.29 283.55 394.48 282.2 391.89C280.47 388.48 276.49 386.63 267.53 385.11C261.25 384.05 260.63 384.05 257.3 384.58C248.35 386.06 238.98 394.36 232.78 406.27C228.83 413.91 227.19 419.25 227.15 424.51Z" id="dW33fx1c9"></path><path d="M227.15 424.51C227.11 430.26 229.29 434.08 234.05 436.58C238.37 438.88 246.87 440.82 252.74 440.82C265.07 440.82 276.2 425.74 282.65 400.15C283.63 396.29 283.55 394.48 282.2 391.89C280.47 388.48 276.49 386.63 267.53 385.11C261.25 384.05 260.63 384.05 257.3 384.58C248.35 386.06 238.98 394.36 232.78 406.27C228.83 413.91 227.19 419.25 227.15 424.51Z" id="b4byBtIwkj"></path><path d="M579.52 430.22C582.11 435.93 587.98 438.93 599.56 440.45C604.9 441.14 607.78 440.77 611.52 439.01C620.19 434.9 627.78 422.62 633.33 403.72C635.1 397.6 635.22 394.93 633.91 392.22C632.06 388.44 628.48 386.72 619.12 385.15C612.3 384 611.64 383.96 608.07 384.74C602.69 385.94 597.84 388.93 592.83 394.19C582.72 404.83 576.15 422.7 579.52 430.22Z" id="a1mrT0zMx6"></path><path d="M579.52 430.22C582.11 435.93 587.98 438.93 599.56 440.45C604.9 441.14 607.78 440.77 611.52 439.01C620.19 434.9 627.78 422.62 633.33 403.72C635.1 397.6 635.22 394.93 633.91 392.22C632.06 388.44 628.48 386.72 619.12 385.15C612.3 384 611.64 383.96 608.07 384.74C602.69 385.94 597.84 388.93 592.83 394.19C582.72 404.83 576.15 422.7 579.52 430.22Z" id="c1Q3DgBsnk"></path><path d="M30.92 533.12C31.09 536.98 31.33 538.58 32.19 541.05C34.78 548.28 40.53 554.03 47.72 556.53C50.15 557.35 51.83 557.6 55.94 557.76C64.28 558.13 69.33 556.53 75.33 551.81C79.76 548.23 79.72 548.73 75.94 544.83C75.72 544.6 74.63 543.46 72.66 541.42C71.72 542.28 71.2 542.76 71.1 542.85C66.37 547.13 62.39 548.6 56.55 548.36C53.43 548.23 52.36 547.99 50.06 546.92C44.81 544.46 41.6 540.18 40.62 534.35C39.38 526.96 43.24 519.44 49.94 516.15C52.24 515.04 52.69 514.96 57.38 514.96C62.26 514.96 62.35 514.96 65.43 516.52C67.15 517.34 69.49 518.9 70.68 519.97C70.83 520.1 71.54 520.73 72.82 521.86C73.04 521.64 74.15 520.53 76.15 518.54C78.15 516.54 79.26 515.43 79.48 515.21C78.88 514.54 78.56 514.17 78.49 514.1C75.24 510.65 69.62 507.36 64.6 506.09C60.54 505.06 54.34 505.06 50.27 506.13C42.79 508.1 36.51 513.15 33.3 519.85C31.21 524.2 30.67 527.16 30.92 533.12Z" id="eZP9eIb5l"></path><path d="M30.92 533.12C31.09 536.98 31.33 538.58 32.19 541.05C34.78 548.28 40.53 554.03 47.72 556.53C50.15 557.35 51.83 557.6 55.94 557.76C64.28 558.13 69.33 556.53 75.33 551.81C79.76 548.23 79.72 548.73 75.94 544.83C75.72 544.6 74.63 543.46 72.66 541.42C71.72 542.28 71.2 542.76 71.1 542.85C66.37 547.13 62.39 548.6 56.55 548.36C53.43 548.23 52.36 547.99 50.06 546.92C44.81 544.46 41.6 540.18 40.62 534.35C39.38 526.96 43.24 519.44 49.94 516.15C52.24 515.04 52.69 514.96 57.38 514.96C62.26 514.96 62.35 514.96 65.43 516.52C67.15 517.34 69.49 518.9 70.68 519.97C70.83 520.1 71.54 520.73 72.82 521.86C73.04 521.64 74.15 520.53 76.15 518.54C78.15 516.54 79.26 515.43 79.48 515.21C78.88 514.54 78.56 514.17 78.49 514.1C75.24 510.65 69.62 507.36 64.6 506.09C60.54 505.06 54.34 505.06 50.27 506.13C42.79 508.1 36.51 513.15 33.3 519.85C31.21 524.2 30.67 527.16 30.92 533.12Z" id="a1lY34Fh13"></path><path d="M407.61 533.12C407.77 536.98 408.02 538.58 408.88 541.05C411.47 548.28 417.22 554.03 424.41 556.53C426.83 557.35 428.52 557.6 432.62 557.76C440.96 558.13 446.01 556.53 452.01 551.81C456.45 548.23 456.41 548.73 452.63 544.83C452.41 544.6 451.31 543.46 449.34 541.42C448.41 542.28 447.88 542.76 447.78 542.85C443.06 547.13 439.07 548.6 433.24 548.36C430.12 548.23 429.05 547.99 426.75 546.92C421.49 544.46 418.29 540.18 417.3 534.35C416.07 526.96 419.93 519.44 426.63 516.15C428.93 515.04 429.38 514.96 434.06 514.96C438.95 514.96 439.03 514.96 442.11 516.52C443.84 517.34 446.18 518.9 447.37 519.97C447.51 520.1 448.22 520.73 449.51 521.86C449.73 521.64 450.84 520.53 452.83 518.54C454.83 516.54 455.94 515.43 456.16 515.21C455.57 514.54 455.24 514.17 455.17 514.1C451.93 510.65 446.3 507.36 441.29 506.09C437.22 505.06 431.02 505.06 426.95 506.13C419.48 508.1 413.19 513.15 409.99 519.85C407.89 524.2 407.36 527.16 407.61 533.12Z" id="atidfjimM"></path><path d="M407.61 533.12C407.77 536.98 408.02 538.58 408.88 541.05C411.47 548.28 417.22 554.03 424.41 556.53C426.83 557.35 428.52 557.6 432.62 557.76C440.96 558.13 446.01 556.53 452.01 551.81C456.45 548.23 456.41 548.73 452.63 544.83C452.41 544.6 451.31 543.46 449.34 541.42C448.41 542.28 447.88 542.76 447.78 542.85C443.06 547.13 439.07 548.6 433.24 548.36C430.12 548.23 429.05 547.99 426.75 546.92C421.49 544.46 418.29 540.18 417.3 534.35C416.07 526.96 419.93 519.44 426.63 516.15C428.93 515.04 429.38 514.96 434.06 514.96C438.95 514.96 439.03 514.96 442.11 516.52C443.84 517.34 446.18 518.9 447.37 519.97C447.51 520.1 448.22 520.73 449.51 521.86C449.73 521.64 450.84 520.53 452.83 518.54C454.83 516.54 455.94 515.43 456.16 515.21C455.57 514.54 455.24 514.17 455.17 514.1C451.93 510.65 446.3 507.36 441.29 506.09C437.22 505.06 431.02 505.06 426.95 506.13C419.48 508.1 413.19 513.15 409.99 519.85C407.89 524.2 407.36 527.16 407.61 533.12Z" id="dqpk8vfHc"></path><path d="M86.91 515.99L91.22 515.99L91.22 536.32L91.22 556.66L96.36 556.66L101.49 556.66L101.49 536.32L101.49 515.99L106.01 515.99L110.53 515.99L110.53 511.26L110.53 506.54L96.56 506.54L82.6 506.54L82.6 511.26L82.6 515.99L86.91 515.99Z" id="a2ZGAwycsX"></path><path d="M86.91 515.99L91.22 515.99L91.22 536.32L91.22 556.66L96.36 556.66L101.49 556.66L101.49 536.32L101.49 515.99L106.01 515.99L110.53 515.99L110.53 511.26L110.53 506.54L96.56 506.54L82.6 506.54L82.6 511.26L82.6 515.99L86.91 515.99Z" id="b1fTXVlODs"></path><path d="M130.66 545.28C130.66 545.56 130.25 546.22 129.75 546.67C126.84 549.3 124 549.06 120.27 545.89C120.13 545.78 119.46 545.22 118.25 544.21C118.04 544.42 117 545.46 115.13 547.33C113.23 549.23 112.18 550.28 111.97 550.49C113.2 551.73 113.88 552.41 114.02 552.55C115.25 553.82 117.27 555.26 119.16 556.16C121.99 557.6 122.44 557.68 125.93 557.68C129.18 557.68 129.92 557.52 131.89 556.49C135.09 554.85 137.68 551.93 139.82 547.5C141.3 544.5 155.31 507.61 155.31 506.75C155.31 506.62 153.05 506.58 150.33 506.62C150 506.63 148.35 506.67 145.36 506.75C142.55 514.85 140.99 519.36 140.68 520.26C138.09 527.7 135.96 533.86 135.88 533.9C135.83 533.98 133.16 527.9 130 520.38C129.62 519.47 127.68 514.93 124.21 506.75C120.93 506.67 119.11 506.63 118.75 506.62C113.69 506.54 113.32 506.58 113.53 507.24C113.65 507.65 117.55 516.23 122.2 526.34C126.84 536.45 130.66 544.95 130.66 545.28Z" id="d5o5eP7Dhp"></path><path d="M130.66 545.28C130.66 545.56 130.25 546.22 129.75 546.67C126.84 549.3 124 549.06 120.27 545.89C120.13 545.78 119.46 545.22 118.25 544.21C118.04 544.42 117 545.46 115.13 547.33C113.23 549.23 112.18 550.28 111.97 550.49C113.2 551.73 113.88 552.41 114.02 552.55C115.25 553.82 117.27 555.26 119.16 556.16C121.99 557.6 122.44 557.68 125.93 557.68C129.18 557.68 129.92 557.52 131.89 556.49C135.09 554.85 137.68 551.93 139.82 547.5C141.3 544.5 155.31 507.61 155.31 506.75C155.31 506.62 153.05 506.58 150.33 506.62C150 506.63 148.35 506.67 145.36 506.75C142.55 514.85 140.99 519.36 140.68 520.26C138.09 527.7 135.96 533.86 135.88 533.9C135.83 533.98 133.16 527.9 130 520.38C129.62 519.47 127.68 514.93 124.21 506.75C120.93 506.67 119.11 506.63 118.75 506.62C113.69 506.54 113.32 506.58 113.53 507.24C113.65 507.65 117.55 516.23 122.2 526.34C126.84 536.45 130.66 544.95 130.66 545.28Z" id="g4XbMTZD5"></path><path d="M209.53 547.62L209.53 564.5L204.93 564.38L200.29 564.25L200.16 560.43L200.04 556.66L166.03 556.66L165.9 560.43L165.78 564.25L161.18 564.38L156.54 564.5L156.54 547.66L159.29 547.54L162.08 547.41L168.33 531.39L168.5 530.95L168.84 530.05L169.02 529.6L169.2 529.14L169.37 528.68L169.55 528.22L169.74 527.75L169.92 527.28L170.1 526.8L170.29 526.32L170.47 525.84L170.66 525.36L171.04 524.38L171.23 523.88L171.43 523.38L171.62 522.88L171.82 522.37L172.01 521.86L172.21 521.35L172.41 520.83L172.61 520.31L172.82 519.79L173.02 519.26L173.23 518.73L173.44 518.2L173.64 517.66L173.85 517.12L174.07 516.57L174.28 516.03L174.49 515.47L174.71 514.92L174.92 514.36L175.14 513.8L175.36 513.23L175.58 512.66L175.81 512.09L176.03 511.52L176.26 510.94L177.98 506.54L187.96 506.54L203.98 547.62L209.53 547.62ZM183.04 521.04L182.85 521.35L182.62 521.79L182.35 522.36L182.02 523.05L181.66 523.89L181.24 524.86L180.78 525.97L180.26 527.23L179.69 528.64L179.07 530.2L178.39 531.91L177.65 533.78L172.31 547.41L177.82 547.54L178.44 547.54L179.11 547.55L179.81 547.56L181.29 547.56L182.06 547.57L184.38 547.57L185.15 547.56L186.61 547.56L187.29 547.55L187.94 547.54L188.54 547.54L193.8 547.41L188.74 534.47L188.19 533.07L187.65 531.69L187.13 530.36L186.62 529.08L186.14 527.86L185.69 526.71L185.27 525.63L184.88 524.64L184.52 523.75L184.21 522.96L183.94 522.27L183.72 521.71L183.54 521.28L183.42 520.99L183.36 520.84L183.29 520.79L183.19 520.85L183.04 521.04Z" id="c77IWVRPd"></path><path d="M209.53 547.62L209.53 564.5L204.93 564.38L200.29 564.25L200.16 560.43L200.04 556.66L166.03 556.66L165.9 560.43L165.78 564.25L161.18 564.38L156.54 564.5L156.54 547.66L159.29 547.54L162.08 547.41L168.33 531.39L168.5 530.95L168.84 530.05L169.02 529.6L169.2 529.14L169.37 528.68L169.55 528.22L169.74 527.75L169.92 527.28L170.1 526.8L170.29 526.32L170.47 525.84L170.66 525.36L171.04 524.38L171.23 523.88L171.43 523.38L171.62 522.88L171.82 522.37L172.01 521.86L172.21 521.35L172.41 520.83L172.61 520.31L172.82 519.79L173.02 519.26L173.23 518.73L173.44 518.2L173.64 517.66L173.85 517.12L174.07 516.57L174.28 516.03L174.49 515.47L174.71 514.92L174.92 514.36L175.14 513.8L175.36 513.23L175.58 512.66L175.81 512.09L176.03 511.52L176.26 510.94L177.98 506.54L187.96 506.54L203.98 547.62L209.53 547.62ZM183.04 521.04L182.85 521.35L182.62 521.79L182.35 522.36L182.02 523.05L181.66 523.89L181.24 524.86L180.78 525.97L180.26 527.23L179.69 528.64L179.07 530.2L178.39 531.91L177.65 533.78L172.31 547.41L177.82 547.54L178.44 547.54L179.11 547.55L179.81 547.56L181.29 547.56L182.06 547.57L184.38 547.57L185.15 547.56L186.61 547.56L187.29 547.55L187.94 547.54L188.54 547.54L193.8 547.41L188.74 534.47L188.19 533.07L187.65 531.69L187.13 530.36L186.62 529.08L186.14 527.86L185.69 526.71L185.27 525.63L184.88 524.64L184.52 523.75L184.21 522.96L183.94 522.27L183.72 521.71L183.54 521.28L183.42 520.99L183.36 520.84L183.29 520.79L183.19 520.85L183.04 521.04Z" id="b4UWwdtx3O"></path><path d="M219.8 556.66L224.73 556.66L224.73 531.6L224.73 506.54L219.8 506.54L214.87 506.54L214.87 531.6L214.87 556.66L219.8 556.66Z" id="c1nJ6kt3hU"></path><path d="M219.8 556.66L224.73 556.66L224.73 531.6L224.73 506.54L219.8 506.54L214.87 506.54L214.87 531.6L214.87 556.66L219.8 556.66Z" id="d25gw5q5Y3"></path><path d="M254.71 556.66L254.71 536.53L253.62 536.53L253.54 536.54L253.4 536.56L253.26 536.62L253.19 536.66L253.12 536.71L253.04 536.77L252.8 537.01L252.71 537.11L252.62 537.23L252.53 537.36L252.43 537.5L252.32 537.66L252.21 537.84L252.09 538.04L251.96 538.25L251.83 538.48L251.68 538.73L251.53 539L251.38 539.29L251.21 539.6L251.03 539.93L250.84 540.28L250.65 540.66L250.44 541.07L250.22 541.5L249.98 541.95L249.74 542.43L249.48 542.94L249.21 543.47L248.93 544.04L248.63 544.63L247.65 546.59L242.6 556.66L237.16 556.66L236.94 556.65L236.08 556.65L235.87 556.64L235.47 556.64L235.28 556.63L235.09 556.63L234.9 556.62L234.72 556.62L234.54 556.61L234.37 556.6L234.2 556.6L233.88 556.58L233.58 556.56L233.44 556.55L233.31 556.55L233.18 556.54L233.06 556.53L232.94 556.51L232.84 556.5L232.73 556.49L232.55 556.47L232.47 556.46L232.4 556.44L232.28 556.42L232.23 556.4L232.19 556.39L232.16 556.37L232.14 556.36L232.13 556.34L232.12 556.33L232.12 556.3L232.13 556.28L232.13 556.25L232.14 556.23L232.14 556.21L232.16 556.17L232.17 556.14L232.18 556.12L232.19 556.09L232.2 556.07L232.23 555.98L232.24 555.96L232.26 555.93L232.27 555.9L232.29 555.86L232.3 555.83L232.34 555.77L232.35 555.74L232.37 555.7L232.41 555.64L232.43 555.6L232.45 555.57L232.47 555.53L232.49 555.5L232.51 555.46L232.53 555.43L232.55 555.39L232.57 555.36L232.59 555.32L232.61 555.29L232.63 555.25L232.66 555.22L232.68 555.17L232.72 555.11L232.77 555.04L232.82 554.95L232.88 554.84L232.95 554.72L233.03 554.58L233.11 554.43L233.2 554.26L233.3 554.08L233.4 553.89L233.51 553.68L233.63 553.47L233.75 553.24L234.01 552.74L234.15 552.48L234.29 552.2L234.44 551.92L234.76 551.32L234.92 551.01L235.43 550.02L235.61 549.67L235.8 549.32L235.98 548.96L236.36 548.22L236.76 547.46L237.16 546.68L237.36 546.28L237.78 545.48L238.2 544.66L243.21 534.93L240.87 533.86L240.55 533.71L240.24 533.56L239.94 533.4L239.65 533.25L239.36 533.08L239.08 532.92L238.81 532.75L238.29 532.39L238.05 532.21L237.57 531.83L237.13 531.43L236.71 531.01L236.51 530.79L236.32 530.57L235.96 530.11L235.79 529.87L235.63 529.63L235.47 529.38L235.31 529.12L235.17 528.86L234.89 528.32L234.77 528.04L234.64 527.75L234.53 527.46L234.31 526.86L234.21 526.55L234.12 526.23L233.94 525.57L233.87 525.23L233.79 524.89L233.72 524.53L233.7 524.37L233.67 524.21L233.64 524.05L233.62 523.9L233.58 523.6L233.56 523.46L233.54 523.32L233.52 523.17L233.51 523.03L233.49 522.9L233.47 522.62L233.45 522.36L233.44 522.22L233.44 522.09L233.43 521.96L233.43 521.43L233.44 521.29L233.44 521.16L233.45 521.02L233.48 520.6L233.49 520.46L233.53 520.16L233.54 520.01L233.57 519.86L233.59 519.7L233.61 519.54L233.64 519.38L233.66 519.21L233.69 519.04L233.72 518.86L233.81 518.38L233.9 517.91L234 517.45L234.11 517L234.23 516.56L234.36 516.13L234.5 515.7L234.65 515.29L234.81 514.89L234.97 514.5L235.15 514.12L235.53 513.38L235.95 512.68L236.18 512.35L236.41 512.03L236.66 511.71L236.91 511.4L237.45 510.82L237.74 510.54L238.03 510.27L238.34 510.01L238.65 509.76L239.31 509.28L239.66 509.06L240.02 508.84L240.38 508.63L240.76 508.44L241.15 508.25L241.54 508.07L241.95 507.89L242.37 507.73L242.8 507.57L243.24 507.43L243.69 507.29L244.16 507.16L244.4 507.1L244.68 507.04L244.83 507.01L244.99 506.98L245.15 506.96L245.32 506.93L245.5 506.91L245.69 506.89L245.89 506.87L246.1 506.84L246.31 506.82L246.53 506.81L247.01 506.77L247.26 506.75L247.52 506.74L247.79 506.72L248.07 506.71L248.36 506.69L248.66 506.68L248.97 506.67L249.29 506.66L249.62 506.65L249.96 506.64L250.31 506.63L250.68 506.62L251.05 506.62L251.44 506.61L251.84 506.6L252.25 506.6L252.67 506.59L253.55 506.59L254 506.58L255.45 506.58L264.57 506.54L264.57 556.66L254.71 556.66ZM251.03 516.02L250.28 516.07L249.52 516.14L248.8 516.24L248.14 516.35L247.57 516.47L247.11 516.6L246.74 516.74L246.38 516.87L246.07 516.98L245.8 517.08L245.59 517.16L245.45 517.2L245.39 517.22L245.35 517.25L245.29 517.34L245.2 517.49L245.08 517.67L244.95 517.9L244.81 518.16L244.65 518.45L244.35 519.24L244.16 520.19L244.06 521.23L244.07 522.28L244.18 523.28L244.39 524.15L244.69 524.82L245.19 525.36L245.94 525.84L246.89 526.26L248.02 526.6L249.29 526.86L250.67 527.02L252.13 527.08L254.71 527.08L254.71 515.99L251.76 515.99L251.03 516.02Z" id="a3rkTFYtGb"></path><path d="M254.71 556.66L254.71 536.53L253.62 536.53L253.54 536.54L253.4 536.56L253.26 536.62L253.19 536.66L253.12 536.71L253.04 536.77L252.8 537.01L252.71 537.11L252.62 537.23L252.53 537.36L252.43 537.5L252.32 537.66L252.21 537.84L252.09 538.04L251.96 538.25L251.83 538.48L251.68 538.73L251.53 539L251.38 539.29L251.21 539.6L251.03 539.93L250.84 540.28L250.65 540.66L250.44 541.07L250.22 541.5L249.98 541.95L249.74 542.43L249.48 542.94L249.21 543.47L248.93 544.04L248.63 544.63L247.65 546.59L242.6 556.66L237.16 556.66L236.94 556.65L236.08 556.65L235.87 556.64L235.47 556.64L235.28 556.63L235.09 556.63L234.9 556.62L234.72 556.62L234.54 556.61L234.37 556.6L234.2 556.6L233.88 556.58L233.58 556.56L233.44 556.55L233.31 556.55L233.18 556.54L233.06 556.53L232.94 556.51L232.84 556.5L232.73 556.49L232.55 556.47L232.47 556.46L232.4 556.44L232.28 556.42L232.23 556.4L232.19 556.39L232.16 556.37L232.14 556.36L232.13 556.34L232.12 556.33L232.12 556.3L232.13 556.28L232.13 556.25L232.14 556.23L232.14 556.21L232.16 556.17L232.17 556.14L232.18 556.12L232.19 556.09L232.2 556.07L232.23 555.98L232.24 555.96L232.26 555.93L232.27 555.9L232.29 555.86L232.3 555.83L232.34 555.77L232.35 555.74L232.37 555.7L232.41 555.64L232.43 555.6L232.45 555.57L232.47 555.53L232.49 555.5L232.51 555.46L232.53 555.43L232.55 555.39L232.57 555.36L232.59 555.32L232.61 555.29L232.63 555.25L232.66 555.22L232.68 555.17L232.72 555.11L232.77 555.04L232.82 554.95L232.88 554.84L232.95 554.72L233.03 554.58L233.11 554.43L233.2 554.26L233.3 554.08L233.4 553.89L233.51 553.68L233.63 553.47L233.75 553.24L234.01 552.74L234.15 552.48L234.29 552.2L234.44 551.92L234.76 551.32L234.92 551.01L235.43 550.02L235.61 549.67L235.8 549.32L235.98 548.96L236.36 548.22L236.76 547.46L237.16 546.68L237.36 546.28L237.78 545.48L238.2 544.66L243.21 534.93L240.87 533.86L240.55 533.71L240.24 533.56L239.94 533.4L239.65 533.25L239.36 533.08L239.08 532.92L238.81 532.75L238.29 532.39L238.05 532.21L237.57 531.83L237.13 531.43L236.71 531.01L236.51 530.79L236.32 530.57L235.96 530.11L235.79 529.87L235.63 529.63L235.47 529.38L235.31 529.12L235.17 528.86L234.89 528.32L234.77 528.04L234.64 527.75L234.53 527.46L234.31 526.86L234.21 526.55L234.12 526.23L233.94 525.57L233.87 525.23L233.79 524.89L233.72 524.53L233.7 524.37L233.67 524.21L233.64 524.05L233.62 523.9L233.58 523.6L233.56 523.46L233.54 523.32L233.52 523.17L233.51 523.03L233.49 522.9L233.47 522.62L233.45 522.36L233.44 522.22L233.44 522.09L233.43 521.96L233.43 521.43L233.44 521.29L233.44 521.16L233.45 521.02L233.48 520.6L233.49 520.46L233.53 520.16L233.54 520.01L233.57 519.86L233.59 519.7L233.61 519.54L233.64 519.38L233.66 519.21L233.69 519.04L233.72 518.86L233.81 518.38L233.9 517.91L234 517.45L234.11 517L234.23 516.56L234.36 516.13L234.5 515.7L234.65 515.29L234.81 514.89L234.97 514.5L235.15 514.12L235.53 513.38L235.95 512.68L236.18 512.35L236.41 512.03L236.66 511.71L236.91 511.4L237.45 510.82L237.74 510.54L238.03 510.27L238.34 510.01L238.65 509.76L239.31 509.28L239.66 509.06L240.02 508.84L240.38 508.63L240.76 508.44L241.15 508.25L241.54 508.07L241.95 507.89L242.37 507.73L242.8 507.57L243.24 507.43L243.69 507.29L244.16 507.16L244.4 507.1L244.68 507.04L244.83 507.01L244.99 506.98L245.15 506.96L245.32 506.93L245.5 506.91L245.69 506.89L245.89 506.87L246.1 506.84L246.31 506.82L246.53 506.81L247.01 506.77L247.26 506.75L247.52 506.74L247.79 506.72L248.07 506.71L248.36 506.69L248.66 506.68L248.97 506.67L249.29 506.66L249.62 506.65L249.96 506.64L250.31 506.63L250.68 506.62L251.05 506.62L251.44 506.61L251.84 506.6L252.25 506.6L252.67 506.59L253.55 506.59L254 506.58L255.45 506.58L264.57 506.54L264.57 556.66L254.71 556.66ZM251.03 516.02L250.28 516.07L249.52 516.14L248.8 516.24L248.14 516.35L247.57 516.47L247.11 516.6L246.74 516.74L246.38 516.87L246.07 516.98L245.8 517.08L245.59 517.16L245.45 517.2L245.39 517.22L245.35 517.25L245.29 517.34L245.2 517.49L245.08 517.67L244.95 517.9L244.81 518.16L244.65 518.45L244.35 519.24L244.16 520.19L244.06 521.23L244.07 522.28L244.18 523.28L244.39 524.15L244.69 524.82L245.19 525.36L245.94 525.84L246.89 526.26L248.02 526.6L249.29 526.86L250.67 527.02L252.13 527.08L254.71 527.08L254.71 515.99L251.76 515.99L251.03 516.02Z" id="bn9rXuhck"></path><path d="M291.81 556.66C292.13 556.66 293.71 556.66 296.57 556.66C299.46 556.66 301.06 556.66 301.38 556.66C302.96 547.41 303.83 542.28 304.01 541.25C305.49 532.79 306.8 526.01 306.92 526.18C307.09 526.34 309.43 533.2 312.14 541.46C312.47 542.46 314.13 547.45 317.11 556.45C317.4 556.45 318.87 556.45 321.51 556.45C324.14 556.45 325.61 556.45 325.9 556.45C328.98 547.21 330.69 542.07 331.04 541.05C335.39 528.02 336.25 525.85 336.5 526.87C336.66 527.53 337.86 534.51 339.17 542.36C339.33 543.31 340.11 548.08 341.51 556.66C344.32 556.66 345.88 556.66 346.19 556.66C349.11 556.66 350.84 556.49 350.84 556.24C350.84 555.75 343.16 509.54 342.79 507.65C342.77 507.57 342.69 507.19 342.54 506.5C342.22 506.51 340.63 506.55 337.77 506.62L333.05 506.75L327.3 524L321.55 541.25L315.76 523.88L309.96 506.54L305.2 506.54L300.48 506.54C298.68 516.94 297.68 522.72 297.48 523.88C295.07 537.76 293.61 546.11 293.12 548.93C293.03 549.45 292.6 552.02 291.81 556.66Z" id="pD5xpzTZC"></path><path d="M291.81 556.66C292.13 556.66 293.71 556.66 296.57 556.66C299.46 556.66 301.06 556.66 301.38 556.66C302.96 547.41 303.83 542.28 304.01 541.25C305.49 532.79 306.8 526.01 306.92 526.18C307.09 526.34 309.43 533.2 312.14 541.46C312.47 542.46 314.13 547.45 317.11 556.45C317.4 556.45 318.87 556.45 321.51 556.45C324.14 556.45 325.61 556.45 325.9 556.45C328.98 547.21 330.69 542.07 331.04 541.05C335.39 528.02 336.25 525.85 336.5 526.87C336.66 527.53 337.86 534.51 339.17 542.36C339.33 543.31 340.11 548.08 341.51 556.66C344.32 556.66 345.88 556.66 346.19 556.66C349.11 556.66 350.84 556.49 350.84 556.24C350.84 555.75 343.16 509.54 342.79 507.65C342.77 507.57 342.69 507.19 342.54 506.5C342.22 506.51 340.63 506.55 337.77 506.62L333.05 506.75L327.3 524L321.55 541.25L315.76 523.88L309.96 506.54L305.2 506.54L300.48 506.54C298.68 516.94 297.68 522.72 297.48 523.88C295.07 537.76 293.61 546.11 293.12 548.93C293.03 549.45 292.6 552.02 291.81 556.66Z" id="c6W9vlBPCO"></path><path d="M383.74 506.75L393.35 531.6L402.92 556.45L397.99 556.57L397.41 556.59L396.86 556.59L396.6 556.6L395.65 556.6L395.43 556.59L395.03 556.59L394.84 556.58L394.66 556.57L394.49 556.57L394.17 556.55L394.02 556.54L393.89 556.53L393.75 556.51L393.63 556.5L393.52 556.48L393.41 556.47L393.31 556.45L393.22 556.44L393.13 556.42L392.99 556.38L392.92 556.35L392.82 556.31L392.78 556.28L392.74 556.26L392.66 556.14L392.64 556.09L392.61 556.03L392.55 555.89L392.47 555.71L392.43 555.61L392.39 555.5L392.34 555.39L392.29 555.27L392.24 555.14L392.19 555L392.13 554.86L392.01 554.56L391.94 554.4L391.88 554.23L391.81 554.06L391.6 553.52L391.53 553.33L391.45 553.14L391.37 552.94L391.3 552.74L390.98 551.9L390.89 551.69L390.73 551.25L390.64 551.03L388.92 546.39L368.58 546.39L366.61 551.52L364.6 556.66L359.22 556.66L358.9 556.65L358.04 556.65L357.77 556.64L357.52 556.64L357.28 556.63L357.06 556.63L356.84 556.62L356.64 556.61L356.44 556.61L356.26 556.6L356.09 556.59L355.93 556.57L355.78 556.56L355.64 556.55L355.51 556.54L355.39 556.52L355.28 556.5L355.18 556.49L355.09 556.47L355.01 556.45L354.87 556.41L354.82 556.38L354.77 556.36L354.73 556.33L354.7 556.31L354.67 556.28L354.65 556.25L354.64 556.22L354.64 556.19L354.65 556.16L354.66 556.12L354.67 556.07L354.71 555.98L354.77 555.83L354.84 555.64L354.93 555.39L355.04 555.11L355.17 554.77L355.32 554.4L355.48 553.98L355.66 553.52L355.85 553.02L356.06 552.49L356.28 551.91L356.51 551.3L356.76 550.66L357.03 549.98L357.3 549.26L357.59 548.52L357.89 547.75L358.2 546.94L358.52 546.11L358.85 545.26L359.2 544.37L359.55 543.46L359.91 542.53L360.28 541.58L360.65 540.61L361.04 539.61L361.43 538.6L361.83 537.57L362.23 536.53L362.64 535.47L363.06 534.4L363.48 533.31L363.9 532.21L364.18 531.48L364.47 530.74L365.31 528.55L365.59 527.83L365.87 527.1L366.43 525.66L366.7 524.94L366.98 524.23L367.25 523.51L367.53 522.8L367.8 522.09L368.08 521.38L368.35 520.68L368.62 519.97L368.89 519.27L369.16 518.57L369.43 517.88L369.7 517.18L369.97 516.49L370.24 515.79L370.5 515.1L370.77 514.42L371.03 513.73L371.3 513.05L371.56 512.37L371.83 511.69L372.35 510.33L373.39 507.65L373.84 506.5L378.81 506.62L383.74 506.75ZM378.44 521.34L378.08 522.14L377.57 523.33L376.89 524.99L376.02 527.16L374.91 529.91L374.43 531.13L373.98 532.28L373.57 533.35L373.21 534.3L372.9 535.13L372.66 535.82L372.48 536.34L372.38 536.68L372.36 536.81L372.49 536.84L372.81 536.86L373.3 536.87L373.95 536.88L376.63 536.88L377.71 536.87L378.85 536.86L385.22 536.73L382.26 529.05L381.72 527.66L381.21 526.34L380.73 525.1L380.29 523.98L379.9 522.99L379.58 522.15L379.32 521.5L379.15 521.05L379.06 520.84L378.97 520.68L378.86 520.67L378.69 520.87L378.44 521.34Z" id="c5hu3fJHTU"></path><path d="M383.74 506.75L393.35 531.6L402.92 556.45L397.99 556.57L397.41 556.59L396.86 556.59L396.6 556.6L395.65 556.6L395.43 556.59L395.03 556.59L394.84 556.58L394.66 556.57L394.49 556.57L394.17 556.55L394.02 556.54L393.89 556.53L393.75 556.51L393.63 556.5L393.52 556.48L393.41 556.47L393.31 556.45L393.22 556.44L393.13 556.42L392.99 556.38L392.92 556.35L392.82 556.31L392.78 556.28L392.74 556.26L392.66 556.14L392.64 556.09L392.61 556.03L392.55 555.89L392.47 555.71L392.43 555.61L392.39 555.5L392.34 555.39L392.29 555.27L392.24 555.14L392.19 555L392.13 554.86L392.01 554.56L391.94 554.4L391.88 554.23L391.81 554.06L391.6 553.52L391.53 553.33L391.45 553.14L391.37 552.94L391.3 552.74L390.98 551.9L390.89 551.69L390.73 551.25L390.64 551.03L388.92 546.39L368.58 546.39L366.61 551.52L364.6 556.66L359.22 556.66L358.9 556.65L358.04 556.65L357.77 556.64L357.52 556.64L357.28 556.63L357.06 556.63L356.84 556.62L356.64 556.61L356.44 556.61L356.26 556.6L356.09 556.59L355.93 556.57L355.78 556.56L355.64 556.55L355.51 556.54L355.39 556.52L355.28 556.5L355.18 556.49L355.09 556.47L355.01 556.45L354.87 556.41L354.82 556.38L354.77 556.36L354.73 556.33L354.7 556.31L354.67 556.28L354.65 556.25L354.64 556.22L354.64 556.19L354.65 556.16L354.66 556.12L354.67 556.07L354.71 555.98L354.77 555.83L354.84 555.64L354.93 555.39L355.04 555.11L355.17 554.77L355.32 554.4L355.48 553.98L355.66 553.52L355.85 553.02L356.06 552.49L356.28 551.91L356.51 551.3L356.76 550.66L357.03 549.98L357.3 549.26L357.59 548.52L357.89 547.75L358.2 546.94L358.52 546.11L358.85 545.26L359.2 544.37L359.55 543.46L359.91 542.53L360.28 541.58L360.65 540.61L361.04 539.61L361.43 538.6L361.83 537.57L362.23 536.53L362.64 535.47L363.06 534.4L363.48 533.31L363.9 532.21L364.18 531.48L364.47 530.74L365.31 528.55L365.59 527.83L365.87 527.1L366.43 525.66L366.7 524.94L366.98 524.23L367.25 523.51L367.53 522.8L367.8 522.09L368.08 521.38L368.35 520.68L368.62 519.97L368.89 519.27L369.16 518.57L369.43 517.88L369.7 517.18L369.97 516.49L370.24 515.79L370.5 515.1L370.77 514.42L371.03 513.73L371.3 513.05L371.56 512.37L371.83 511.69L372.35 510.33L373.39 507.65L373.84 506.5L378.81 506.62L383.74 506.75ZM378.44 521.34L378.08 522.14L377.57 523.33L376.89 524.99L376.02 527.16L374.91 529.91L374.43 531.13L373.98 532.28L373.57 533.35L373.21 534.3L372.9 535.13L372.66 535.82L372.48 536.34L372.38 536.68L372.36 536.81L372.49 536.84L372.81 536.86L373.3 536.87L373.95 536.88L376.63 536.88L377.71 536.87L378.85 536.86L385.22 536.73L382.26 529.05L381.72 527.66L381.21 526.34L380.73 525.1L380.29 523.98L379.9 522.99L379.58 522.15L379.32 521.5L379.15 521.05L379.06 520.84L378.97 520.68L378.86 520.67L378.69 520.87L378.44 521.34Z" id="eAVouun2c"></path><path d="M489.72 506.75L499.33 531.6L508.9 556.45L503.98 556.57L503.68 556.58L503.39 556.59L502.84 556.59L502.58 556.6L501.63 556.6L501.42 556.59L501.01 556.59L500.82 556.58L500.64 556.57L500.47 556.57L500.15 556.55L499.87 556.53L499.74 556.51L499.61 556.5L499.5 556.48L499.39 556.47L499.29 556.45L499.2 556.44L499.11 556.42L498.97 556.38L498.9 556.35L498.8 556.31L498.76 556.28L498.73 556.26L498.7 556.23L498.64 556.14L498.62 556.09L498.59 556.03L498.53 555.89L498.49 555.8L498.46 555.71L498.41 555.61L498.37 555.5L498.32 555.39L498.27 555.27L498.22 555.14L498.17 555L498.11 554.86L497.99 554.56L497.93 554.4L497.79 554.06L497.58 553.52L497.51 553.33L497.43 553.14L497.36 552.94L497.28 552.74L496.96 551.9L496.87 551.69L496.71 551.25L496.62 551.03L494.9 546.39L474.56 546.39L472.59 551.52L470.58 556.66L465.2 556.66L464.88 556.65L464.02 556.65L463.75 556.64L463.5 556.64L463.26 556.63L463.04 556.63L462.82 556.62L462.62 556.61L462.43 556.61L462.24 556.6L462.07 556.59L461.91 556.57L461.76 556.56L461.62 556.55L461.49 556.54L461.37 556.52L461.26 556.5L461.16 556.49L461.07 556.47L460.99 556.45L460.85 556.41L460.8 556.38L460.75 556.36L460.71 556.33L460.68 556.31L460.65 556.28L460.62 556.19L460.63 556.16L460.64 556.12L460.66 556.07L460.69 555.98L460.75 555.83L460.82 555.64L460.92 555.39L461.03 555.11L461.15 554.77L461.3 554.4L461.46 553.98L461.64 553.52L461.83 553.02L462.04 552.49L462.26 551.91L462.5 551.3L462.75 550.66L463.01 549.98L463.28 549.26L463.57 548.52L463.87 547.75L464.18 546.94L464.5 546.11L464.84 545.26L465.18 544.37L465.53 543.46L465.89 542.53L466.26 541.58L466.63 540.61L467.02 539.61L467.41 538.6L467.81 537.57L468.21 536.53L468.62 535.47L469.04 534.4L469.46 533.31L469.88 532.21L470.16 531.48L470.45 530.74L471.29 528.55L471.57 527.83L471.85 527.1L472.41 525.66L472.68 524.94L472.96 524.23L473.24 523.51L473.51 522.8L473.78 522.09L474.06 521.38L474.33 520.68L474.6 519.97L474.87 519.27L475.14 518.57L475.41 517.88L475.68 517.18L475.95 516.49L476.22 515.79L476.48 515.1L476.75 514.42L477.02 513.73L477.28 513.05L477.54 512.37L477.81 511.69L478.33 510.33L479.37 507.65L479.82 506.5L484.79 506.62L489.72 506.75ZM484.42 521.34L484.06 522.14L483.55 523.33L482.88 524.99L482 527.16L480.89 529.91L480.41 531.13L479.96 532.28L479.55 533.35L479.19 534.3L478.88 535.13L478.64 535.82L478.46 536.34L478.36 536.68L478.34 536.81L478.47 536.84L478.79 536.86L479.29 536.87L479.93 536.88L482.62 536.88L483.69 536.87L484.83 536.86L491.2 536.73L488.24 529.05L487.7 527.66L487.19 526.34L486.71 525.1L486.27 523.98L485.88 522.99L485.56 522.15L485.3 521.5L485.13 521.05L485.04 520.84L484.95 520.68L484.84 520.67L484.67 520.87L484.42 521.34Z" id="d3ZdCLRtc"></path><path d="M489.72 506.75L499.33 531.6L508.9 556.45L503.98 556.57L503.68 556.58L503.39 556.59L502.84 556.59L502.58 556.6L501.63 556.6L501.42 556.59L501.01 556.59L500.82 556.58L500.64 556.57L500.47 556.57L500.15 556.55L499.87 556.53L499.74 556.51L499.61 556.5L499.5 556.48L499.39 556.47L499.29 556.45L499.2 556.44L499.11 556.42L498.97 556.38L498.9 556.35L498.8 556.31L498.76 556.28L498.73 556.26L498.7 556.23L498.64 556.14L498.62 556.09L498.59 556.03L498.53 555.89L498.49 555.8L498.46 555.71L498.41 555.61L498.37 555.5L498.32 555.39L498.27 555.27L498.22 555.14L498.17 555L498.11 554.86L497.99 554.56L497.93 554.4L497.79 554.06L497.58 553.52L497.51 553.33L497.43 553.14L497.36 552.94L497.28 552.74L496.96 551.9L496.87 551.69L496.71 551.25L496.62 551.03L494.9 546.39L474.56 546.39L472.59 551.52L470.58 556.66L465.2 556.66L464.88 556.65L464.02 556.65L463.75 556.64L463.5 556.64L463.26 556.63L463.04 556.63L462.82 556.62L462.62 556.61L462.43 556.61L462.24 556.6L462.07 556.59L461.91 556.57L461.76 556.56L461.62 556.55L461.49 556.54L461.37 556.52L461.26 556.5L461.16 556.49L461.07 556.47L460.99 556.45L460.85 556.41L460.8 556.38L460.75 556.36L460.71 556.33L460.68 556.31L460.65 556.28L460.62 556.19L460.63 556.16L460.64 556.12L460.66 556.07L460.69 555.98L460.75 555.83L460.82 555.64L460.92 555.39L461.03 555.11L461.15 554.77L461.3 554.4L461.46 553.98L461.64 553.52L461.83 553.02L462.04 552.49L462.26 551.91L462.5 551.3L462.75 550.66L463.01 549.98L463.28 549.26L463.57 548.52L463.87 547.75L464.18 546.94L464.5 546.11L464.84 545.26L465.18 544.37L465.53 543.46L465.89 542.53L466.26 541.58L466.63 540.61L467.02 539.61L467.41 538.6L467.81 537.57L468.21 536.53L468.62 535.47L469.04 534.4L469.46 533.31L469.88 532.21L470.16 531.48L470.45 530.74L471.29 528.55L471.57 527.83L471.85 527.1L472.41 525.66L472.68 524.94L472.96 524.23L473.24 523.51L473.51 522.8L473.78 522.09L474.06 521.38L474.33 520.68L474.6 519.97L474.87 519.27L475.14 518.57L475.41 517.88L475.68 517.18L475.95 516.49L476.22 515.79L476.48 515.1L476.75 514.42L477.02 513.73L477.28 513.05L477.54 512.37L477.81 511.69L478.33 510.33L479.37 507.65L479.82 506.5L484.79 506.62L489.72 506.75ZM484.42 521.34L484.06 522.14L483.55 523.33L482.88 524.99L482 527.16L480.89 529.91L480.41 531.13L479.96 532.28L479.55 533.35L479.19 534.3L478.88 535.13L478.64 535.82L478.46 536.34L478.36 536.68L478.34 536.81L478.47 536.84L478.79 536.86L479.29 536.87L479.93 536.88L482.62 536.88L483.69 536.87L484.83 536.86L491.2 536.73L488.24 529.05L487.7 527.66L487.19 526.34L486.71 525.1L486.27 523.98L485.88 522.99L485.56 522.15L485.3 521.5L485.13 521.05L485.04 520.84L484.95 520.68L484.84 520.67L484.67 520.87L484.42 521.34Z" id="aCeY3xXeK"></path><path d="M529.94 527.65C529.94 527.78 525.95 534.14 521.06 541.79C516.18 549.38 512.07 555.88 511.99 556.12C511.82 556.53 513.09 556.66 517.45 556.66C517.83 556.65 519.73 556.64 523.16 556.61C527.35 549.61 529.68 545.73 530.14 544.95C539.02 530.04 538.56 530.04 538.56 545.65C538.56 546.38 538.56 550.05 538.56 556.66C538.89 556.66 540.53 556.66 543.49 556.66C546.45 556.66 548.09 556.66 548.42 556.66C548.42 549.9 548.42 546.15 548.42 545.4C548.42 536.28 548.55 534.06 549 533.69C549.61 533.2 549.49 533.04 559.96 550.78C560.19 551.17 561.35 553.13 563.42 556.66C566.82 556.66 568.71 556.66 569.08 556.66C572.17 556.66 574.71 556.57 574.71 556.41C574.71 556.29 570.77 549.96 565.96 542.36C561.12 534.76 557.05 528.31 556.93 528.02C556.72 527.74 559.92 523.38 564.89 517.14C565.44 516.45 568.2 512.98 573.15 506.75C569.87 506.67 568.05 506.63 567.69 506.62C564.69 506.58 562.02 506.58 561.73 506.7C561.48 506.79 558.36 510.73 554.83 515.41C554.4 515.98 552.27 518.81 548.42 523.92C548.42 523.34 548.42 520.44 548.42 515.21L548.42 506.54L543.49 506.54C540.53 506.54 538.89 506.54 538.56 506.54C538.56 511.77 538.56 514.67 538.56 515.25C538.56 523.05 538.48 523.92 537.95 523.34C537.58 523.01 534.58 519.11 531.25 514.71C530.85 514.18 528.82 511.53 525.17 506.75C521.65 506.67 519.69 506.63 519.3 506.62C514.61 506.54 513.51 506.62 513.75 507.03C513.96 507.32 517.65 512.04 522.01 517.47C526.36 522.93 529.94 527.49 529.94 527.65Z" id="b1TU3j3O4C"></path><path d="M529.94 527.65C529.94 527.78 525.95 534.14 521.06 541.79C516.18 549.38 512.07 555.88 511.99 556.12C511.82 556.53 513.09 556.66 517.45 556.66C517.83 556.65 519.73 556.64 523.16 556.61C527.35 549.61 529.68 545.73 530.14 544.95C539.02 530.04 538.56 530.04 538.56 545.65C538.56 546.38 538.56 550.05 538.56 556.66C538.89 556.66 540.53 556.66 543.49 556.66C546.45 556.66 548.09 556.66 548.42 556.66C548.42 549.9 548.42 546.15 548.42 545.4C548.42 536.28 548.55 534.06 549 533.69C549.61 533.2 549.49 533.04 559.96 550.78C560.19 551.17 561.35 553.13 563.42 556.66C566.82 556.66 568.71 556.66 569.08 556.66C572.17 556.66 574.71 556.57 574.71 556.41C574.71 556.29 570.77 549.96 565.96 542.36C561.12 534.76 557.05 528.31 556.93 528.02C556.72 527.74 559.92 523.38 564.89 517.14C565.44 516.45 568.2 512.98 573.15 506.75C569.87 506.67 568.05 506.63 567.69 506.62C564.69 506.58 562.02 506.58 561.73 506.7C561.48 506.79 558.36 510.73 554.83 515.41C554.4 515.98 552.27 518.81 548.42 523.92C548.42 523.34 548.42 520.44 548.42 515.21L548.42 506.54L543.49 506.54C540.53 506.54 538.89 506.54 538.56 506.54C538.56 511.77 538.56 514.67 538.56 515.25C538.56 523.05 538.48 523.92 537.95 523.34C537.58 523.01 534.58 519.11 531.25 514.71C530.85 514.18 528.82 511.53 525.17 506.75C521.65 506.67 519.69 506.63 519.3 506.62C514.61 506.54 513.51 506.62 513.75 507.03C513.96 507.32 517.65 512.04 522.01 517.47C526.36 522.93 529.94 527.49 529.94 527.65Z" id="a9nEoXBuH"></path><path d="M595.25 545.28C595.25 545.56 594.84 546.22 594.35 546.67C591.43 549.3 588.6 549.06 584.86 545.89C584.72 545.78 584.05 545.22 582.85 544.21C582.64 544.42 581.6 545.46 579.72 547.33C577.82 549.23 576.77 550.28 576.56 550.49C577.79 551.73 578.48 552.41 578.61 552.55C579.85 553.82 581.86 555.26 583.75 556.16C586.58 557.6 587.04 557.68 590.53 557.68C593.77 557.68 594.51 557.52 596.48 556.49C599.69 554.85 602.28 551.93 604.41 547.5C605.89 544.5 619.9 507.61 619.9 506.75C619.9 506.62 617.64 506.58 614.93 506.62C614.6 506.63 612.94 506.67 609.96 506.75C607.15 514.85 605.59 519.36 605.27 520.26C602.69 527.7 600.55 533.86 600.47 533.9C600.43 533.98 597.76 527.9 594.59 520.38C594.21 519.47 592.28 514.93 588.8 506.75C585.52 506.67 583.7 506.63 583.34 506.62C578.29 506.54 577.92 506.58 578.12 507.24C578.24 507.65 582.15 516.23 586.79 526.34C591.43 536.45 595.25 544.95 595.25 545.28Z" id="h38CIiyZUW"></path><path d="M595.25 545.28C595.25 545.56 594.84 546.22 594.35 546.67C591.43 549.3 588.6 549.06 584.86 545.89C584.72 545.78 584.05 545.22 582.85 544.21C582.64 544.42 581.6 545.46 579.72 547.33C577.82 549.23 576.77 550.28 576.56 550.49C577.79 551.73 578.48 552.41 578.61 552.55C579.85 553.82 581.86 555.26 583.75 556.16C586.58 557.6 587.04 557.68 590.53 557.68C593.77 557.68 594.51 557.52 596.48 556.49C599.69 554.85 602.28 551.93 604.41 547.5C605.89 544.5 619.9 507.61 619.9 506.75C619.9 506.62 617.64 506.58 614.93 506.62C614.6 506.63 612.94 506.67 609.96 506.75C607.15 514.85 605.59 519.36 605.27 520.26C602.69 527.7 600.55 533.86 600.47 533.9C600.43 533.98 597.76 527.9 594.59 520.38C594.21 519.47 592.28 514.93 588.8 506.75C585.52 506.67 583.7 506.63 583.34 506.62C578.29 506.54 577.92 506.58 578.12 507.24C578.24 507.65 582.15 516.23 586.79 526.34C591.43 536.45 595.25 544.95 595.25 545.28Z" id="a3vxh5Z3ZQ"></path></defs><g><g><use xlink:href="#bt9LY7XBQ" opacity="1" fill="#ffffff" fill-opacity="1"></use><g><use xlink:href="#bt9LY7XBQ" opacity="1" fill-opacity="0" stroke="#000000" stroke-width="1" stroke-opacity="0"></use></g></g><g><use xlink:href="#b85JPpQzZ" opacity="1" fill="#ffffff" fill-opacity="1"></use><g><use xlink:href="#b85JPpQzZ" opacity="1" fill-opacity="0" stroke="#000000" stroke-width="1" stroke-opacity="0"></use></g></g><g><use xlink:href="#aQcqCdY1E" opacity="1" fill="#ffffff" fill-opacity="1"></use><g><use xlink:href="#aQcqCdY1E" opacity="1" fill-opacity="0" stroke="#000000" stroke-width="1" stroke-opacity="0"></use></g></g><g><use xlink:href="#cNT9YtXom" opacity="1" fill="#ffffff" fill-opacity="1"></use><g><use xlink:href="#cNT9YtXom" opacity="1" fill-opacity="0" stroke="#000000" stroke-width="1" stroke-opacity="0"></use></g></g><g><use xlink:href="#dW33fx1c9" opacity="1" fill="#ffffff" fill-opacity="1"></use><g><use xlink:href="#dW33fx1c9" opacity="1" fill-opacity="0" stroke="#000000" stroke-width="1" stroke-opacity="0"></use></g></g><g><use xlink:href="#b4byBtIwkj" opacity="1" fill="#ffffff" fill-opacity="1"></use><g><use xlink:href="#b4byBtIwkj" opacity="1" fill-opacity="0" stroke="#000000" stroke-width="1" stroke-opacity="0"></use></g></g><g><use xlink:href="#a1mrT0zMx6" opacity="1" fill="#ffffff" fill-opacity="1"></use><g><use xlink:href="#a1mrT0zMx6" opacity="1" fill-opacity="0" stroke="#000000" stroke-width="1" stroke-opacity="0"></use></g></g><g><use xlink:href="#c1Q3DgBsnk" opacity="1" fill="#ffffff" fill-opacity="1"></use><g><use xlink:href="#c1Q3DgBsnk" opacity="1" fill-opacity="0" stroke="#000000" stroke-width="1" stroke-opacity="0"></use></g></g><g><use xlink:href="#eZP9eIb5l" opacity="1" fill="#ffffff" fill-opacity="1"></use><g><use xlink:href="#eZP9eIb5l" opacity="1" fill-opacity="0" stroke="#000000" stroke-width="1" stroke-opacity="0"></use></g></g><g><use xlink:href="#a1lY34Fh13" opacity="1" fill="#ffffff" fill-opacity="1"></use><g><use xlink:href="#a1lY34Fh13" opacity="1" fill-opacity="0" stroke="#000000" stroke-width="1" stroke-opacity="0"></use></g></g><g><use xlink:href="#atidfjimM" opacity="1" fill="#ffffff" fill-opacity="1"></use><g><use xlink:href="#atidfjimM" opacity="1" fill-opacity="0" stroke="#000000" stroke-width="1" stroke-opacity="0"></use></g></g><g><use xlink:href="#dqpk8vfHc" opacity="1" fill="#ffffff" fill-opacity="1"></use><g><use xlink:href="#dqpk8vfHc" opacity="1" fill-opacity="0" stroke="#000000" stroke-width="1" stroke-opacity="0"></use></g></g><g><use xlink:href="#a2ZGAwycsX" opacity="1" fill="#ffffff" fill-opacity="1"></use><g><use xlink:href="#a2ZGAwycsX" opacity="1" fill-opacity="0" stroke="#000000" stroke-width="1" stroke-opacity="0"></use></g></g><g><use xlink:href="#b1fTXVlODs" opacity="1" fill="#ffffff" fill-opacity="1"></use><g><use xlink:href="#b1fTXVlODs" opacity="1" fill-opacity="0" stroke="#000000" stroke-width="1" stroke-opacity="0"></use></g></g><g><use xlink:href="#d5o5eP7Dhp" opacity="1" fill="#ffffff" fill-opacity="1"></use><g><use xlink:href="#d5o5eP7Dhp" opacity="1" fill-opacity="0" stroke="#000000" stroke-width="1" stroke-opacity="0"></use></g></g><g><use xlink:href="#g4XbMTZD5" opacity="1" fill="#ffffff" fill-opacity="1"></use><g><use xlink:href="#g4XbMTZD5" opacity="1" fill-opacity="0" stroke="#000000" stroke-width="1" stroke-opacity="0"></use></g></g><g><use xlink:href="#c77IWVRPd" opacity="1" fill="#ffffff" fill-opacity="1"></use><g><use xlink:href="#c77IWVRPd" opacity="1" fill-opacity="0" stroke="#000000" stroke-width="1" stroke-opacity="0"></use></g></g><g><use xlink:href="#b4UWwdtx3O" opacity="1" fill="#ffffff" fill-opacity="1"></use><g><use xlink:href="#b4UWwdtx3O" opacity="1" fill-opacity="0" stroke="#000000" stroke-width="1" stroke-opacity="0"></use></g></g><g><use xlink:href="#c1nJ6kt3hU" opacity="1" fill="#ffffff" fill-opacity="1"></use><g><use xlink:href="#c1nJ6kt3hU" opacity="1" fill-opacity="0" stroke="#000000" stroke-width="1" stroke-opacity="0"></use></g></g><g><use xlink:href="#d25gw5q5Y3" opacity="1" fill="#ffffff" fill-opacity="1"></use><g><use xlink:href="#d25gw5q5Y3" opacity="1" fill-opacity="0" stroke="#000000" stroke-width="1" stroke-opacity="0"></use></g></g><g><use xlink:href="#a3rkTFYtGb" opacity="1" fill="#ffffff" fill-opacity="1"></use><g><use xlink:href="#a3rkTFYtGb" opacity="1" fill-opacity="0" stroke="#000000" stroke-width="1" stroke-opacity="0"></use></g></g><g><use xlink:href="#bn9rXuhck" opacity="1" fill="#ffffff" fill-opacity="1"></use><g><use xlink:href="#bn9rXuhck" opacity="1" fill-opacity="0" stroke="#000000" stroke-width="1" stroke-opacity="0"></use></g></g><g><use xlink:href="#pD5xpzTZC" opacity="1" fill="#ffffff" fill-opacity="1"></use><g><use xlink:href="#pD5xpzTZC" opacity="1" fill-opacity="0" stroke="#000000" stroke-width="1" stroke-opacity="0"></use></g></g><g><use xlink:href="#c6W9vlBPCO" opacity="1" fill="#ffffff" fill-opacity="1"></use><g><use xlink:href="#c6W9vlBPCO" opacity="1" fill-opacity="0" stroke="#000000" stroke-width="1" stroke-opacity="0"></use></g></g><g><use xlink:href="#c5hu3fJHTU" opacity="1" fill="#ffffff" fill-opacity="1"></use><g><use xlink:href="#c5hu3fJHTU" opacity="1" fill-opacity="0" stroke="#000000" stroke-width="1" stroke-opacity="0"></use></g></g><g><use xlink:href="#eAVouun2c" opacity="1" fill="#ffffff" fill-opacity="1"></use><g><use xlink:href="#eAVouun2c" opacity="1" fill-opacity="0" stroke="#000000" stroke-width="1" stroke-opacity="0"></use></g></g><g><use xlink:href="#d3ZdCLRtc" opacity="1" fill="#ffffff" fill-opacity="1"></use><g><use xlink:href="#d3ZdCLRtc" opacity="1" fill-opacity="0" stroke="#000000" stroke-width="1" stroke-opacity="0"></use></g></g><g><use xlink:href="#aCeY3xXeK" opacity="1" fill="#ffffff" fill-opacity="1"></use><g><use xlink:href="#aCeY3xXeK" opacity="1" fill-opacity="0" stroke="#000000" stroke-width="1" stroke-opacity="0"></use></g></g><g><use xlink:href="#b1TU3j3O4C" opacity="1" fill="#ffffff" fill-opacity="1"></use><g><use xlink:href="#b1TU3j3O4C" opacity="1" fill-opacity="0" stroke="#000000" stroke-width="1" stroke-opacity="0"></use></g></g><g><use xlink:href="#a9nEoXBuH" opacity="1" fill="#ffffff" fill-opacity="1"></use><g><use xlink:href="#a9nEoXBuH" opacity="1" fill-opacity="0" stroke="#000000" stroke-width="1" stroke-opacity="0"></use></g></g><g><use xlink:href="#h38CIiyZUW" opacity="1" fill="#ffffff" fill-opacity="1"></use><g><use xlink:href="#h38CIiyZUW" opacity="1" fill-opacity="0" stroke="#000000" stroke-width="1" stroke-opacity="0"></use></g></g><g><use xlink:href="#a3vxh5Z3ZQ" opacity="1" fill="#ffffff" fill-opacity="1"></use><g><use xlink:href="#a3vxh5Z3ZQ" opacity="1" fill-opacity="0" stroke="#000000" stroke-width="1" stroke-opacity="0"></use></g></g></g></svg>